<?xml version="1.0" standalone="no"?><!DOCTYPE svg PUBLIC "-//W3C//DTD SVG 1.1//EN" "http://www.w3.org/Graphics/SVG/1.1/DTD/svg11.dtd"><svg width="100%" height="100%" viewBox="0 0 200 107" version="1.1" xmlns="http://www.w3.org/2000/svg" xmlns:xlink="http://www.w3.org/1999/xlink" xml:space="preserve" style="fill-rule:evenodd;clip-rule:evenodd;stroke-miterlimit:1.41421;"><g><g><g><path d="M26.236,74.132c0,-11.934 5.099,-19.453 5.941,-20.294c-0.842,0.841 -5.941,8.412 -5.941,20.294c0,12.987 5.047,20.821 6.204,22.135c-1.157,-1.262 -6.204,-9.148 -6.204,-22.135Z" style="fill:url(#_Linear1);fill-rule:nonzero;stroke-width:0.68px;stroke:#b66228;"/><path d="M32.124,53.891c-0.578,0.683 -0.894,1.419 -0.894,2.103c0,4.416 11.567,8.307 29.338,10.673l-0.053,0.052c-1.998,2.156 -3.785,6.625 -4.153,14.406c-0.105,2.313 -0.105,4.89 0.052,7.781c0.684,12.146 4.522,17.193 6.204,17.613l0.211,0.053c-0.053,0 -0.158,0 -0.211,-0.053c-15.457,-2.26 -28.496,-8.727 -30.021,-10.042c-2.629,-2.26 -6.361,-8.832 -6.361,-22.292c0,-13.459 5.888,-20.294 5.888,-20.294Z" style="fill:url(#_Linear2);fill-rule:nonzero;stroke-width:0.68px;stroke:#b66228;"/></g><path d="M167.928,53.996c0.579,0.683 0.789,1.367 0.789,2.103c0,4.416 -11.409,8.254 -29.127,10.62l0.052,0.053c1.998,2.155 4.101,7.571 4.101,22.187c0,12.198 -4.731,17.245 -6.414,17.666c15.405,-2.314 25.657,-6.783 30.231,-10.095c2.629,-1.945 6.625,-8.833 6.362,-22.292c-0.21,-13.565 -5.994,-20.242 -5.994,-20.242Z" style="fill:url(#_Linear3);fill-rule:nonzero;stroke-width:0.68px;stroke:#b66228;"/><path d="M100,55.678l39.38,11.041c17.77,-2.366 29.39,-6.256 29.39,-10.673c0,-7.203 -30.81,-13.039 -68.77,-13.039c-37.96,0 -68.77,5.784 -68.77,12.987c0,4.416 11.567,8.307 29.338,10.673c1.682,-1.42 39.432,-10.989 39.432,-10.989Z" style="fill:url(#_Linear4);fill-rule:nonzero;stroke-width:0.68px;stroke-linejoin:round;stroke:#b66228;"/><path d="M60.515,66.719c-2.05,2.208 -3.838,6.677 -4.206,14.459c-0.105,2.313 -0.105,4.889 0.053,7.781c0.683,12.145 4.521,17.192 6.204,17.613c0.052,0 0.157,0 0.21,0.053c1.525,0 37.171,-13.25 37.171,-13.25l0,-15.772l0,-8.518l0,-13.407c0.053,0 -37.697,9.569 -39.432,11.041Z" style="fill:url(#_Linear5);fill-rule:nonzero;stroke-width:0.68px;stroke-linejoin:round;stroke:#b66228;"/><path d="M143.586,81.125c-0.789,-11.987 -3.944,-14.353 -3.944,-14.353l-0.262,-0.105l-39.38,-11.041l0,37.697l37.329,13.249c0,0 6.467,-2.208 6.467,-19.453c0,-2.208 -0.105,-4.206 -0.21,-5.994Z" style="fill:url(#_Linear6);fill-rule:nonzero;stroke-width:0.68px;stroke-linejoin:round;stroke:#b66228;"/><path d="M100,90.589l0,-32.229l38.223,10.778c0.631,0.946 2.261,4.153 2.786,12.197c0.106,1.788 0.158,3.786 0.158,5.836c0,11.304 -2.892,15.3 -4.153,16.509l-37.014,-13.091Z" style="fill:#fee69f;fill-rule:nonzero;stroke-width:0.55px;stroke:#b66228;"/><path d="M62.198,68.77c-0.999,1.262 -2.839,4.574 -3.26,12.46c-0.105,2.314 -0.105,4.785 0.053,7.466c0.525,9.464 3.049,13.828 4.153,15.037c4.101,-1.209 24.658,-8.675 36.803,-13.197l0,-32.176c-15.772,4.048 -34.963,9.253 -37.749,10.41Z" style="fill:#fee69f;fill-rule:nonzero;stroke-width:0.55px;stroke:#b66228;"/></g><path d="M85.91,84.753c0.893,0 0.893,-1.367 0,-1.367c-0.894,0 -0.894,1.367 0,1.367Z" style="fill:#fccc67;fill-rule:nonzero;"/><path d="M73.87,90.484c0.893,0 0.893,-1.367 0,-1.367c-0.894,0 -0.894,1.367 0,1.367Z" style="fill:#fccc67;fill-rule:nonzero;"/><path d="M85.647,78.181c0.893,0 0.893,-1.367 0,-1.367c-0.894,0 -0.894,1.367 0,1.367Z" style="fill:#fccc67;fill-rule:nonzero;"/><path d="M95.478,86.383c0.894,0 0.894,-1.367 0,-1.367c-0.893,0 -0.841,1.367 0,1.367Z" style="fill:#fccc67;fill-rule:nonzero;"/><path d="M94.69,65.3c0.894,0 0.894,-1.367 0,-1.367c-0.894,0 -0.894,1.367 0,1.367Z" style="fill:#fccc67;fill-rule:nonzero;"/><path d="M67.035,75.71c0.893,0 0.893,-1.367 0,-1.367c-0.894,0 -0.894,1.367 0,1.367Z" style="fill:#fccc67;fill-rule:nonzero;"/><path d="M80.442,69.664c0.893,0 0.893,-1.367 0,-1.367c-0.894,0 -0.894,1.367 0,1.367Z" style="fill:#fccc67;fill-rule:nonzero;"/><path d="M130.284,85.542c0.894,0 0.894,-1.367 0,-1.367c-0.894,0 -0.894,1.367 0,1.367Z" style="fill:#fccc67;fill-rule:nonzero;"/><path d="M136.593,95.952c0.894,0 0.894,-1.367 0,-1.367c-0.894,0 -0.894,1.367 0,1.367Z" style="fill:#fccc67;fill-rule:nonzero;"/><path d="M115.51,80.074c0.894,0 0.894,-1.367 0,-1.367c-0.894,0 -0.894,1.367 0,1.367Z" style="fill:#fccc67;fill-rule:nonzero;"/><path d="M120.978,94.9c0.894,0 0.894,-1.367 0,-1.367c-0.894,0 -0.894,1.367 0,1.367Z" style="fill:#fccc67;fill-rule:nonzero;"/><path d="M128.654,78.444c0.894,0 0.894,-1.367 0,-1.367c-0.894,0 -0.894,1.367 0,1.367Z" style="fill:#fccc67;fill-rule:nonzero;"/><path d="M103.733,88.591c0.894,0 0.894,-1.367 0,-1.367c-0.894,0 -0.894,1.367 0,1.367Z" style="fill:#fccc67;fill-rule:nonzero;"/><path d="M104.784,63.67c0.894,0 0.894,-1.367 0,-1.367c-0.893,0 -0.841,1.367 0,1.367Z" style="fill:#fccc67;fill-rule:nonzero;"/><path d="M131.651,99.79c0.894,0 0.894,-1.367 0,-1.367c-0.894,0 -0.894,1.367 0,1.367Z" style="fill:#fccc67;fill-rule:nonzero;"/><path d="M138.749,85.279c0.893,0 0.893,-1.367 0,-1.367c-0.894,0 -0.894,1.367 0,1.367Z" style="fill:#fccc67;fill-rule:nonzero;"/><path d="M118.77,68.612c0.894,0 0.894,-1.367 0,-1.367c-0.894,0 -0.894,1.367 0,1.367Z" style="fill:#fccc67;fill-rule:nonzero;"/><path d="M106.257,71.609c0.893,0 0.893,-1.367 0,-1.367c-0.894,0 -0.842,1.367 0,1.367Z" style="fill:#fccc67;fill-rule:nonzero;"/><path d="M113.039,89.38c0.894,0 0.894,-1.367 0,-1.367c-0.894,0 -0.894,1.367 0,1.367Z" style="fill:#fccc67;fill-rule:nonzero;"/><path d="M114.669,69.401c0.894,0 0.894,-1.367 0,-1.367c-0.894,0 -0.894,1.367 0,1.367Z" style="fill:#fccc67;fill-rule:nonzero;"/><path d="M104.101,76.972c0.894,0 0.894,-1.367 0,-1.367c-0.894,0 -0.894,1.367 0,1.367Z" style="fill:#fccc67;fill-rule:nonzero;"/><path d="M67.035,100.368c0.893,0 0.893,-1.367 0,-1.367c-0.894,0 -0.894,1.367 0,1.367Z" style="fill:#fccc67;fill-rule:nonzero;"/><path d="M61.83,86.961c0.893,0 0.893,-1.367 0,-1.367c-0.894,-0.052 -0.894,1.367 0,1.367Z" style="fill:#fccc67;fill-rule:nonzero;"/><path d="M81.283,81.178c0.894,0 0.894,-1.367 0,-1.367c-0.894,0 -0.894,1.367 0,1.367Z" style="fill:#fccc67;fill-rule:nonzero;"/><path d="M89.222,92.587c0.894,0 0.894,-1.367 0,-1.367c-0.894,0 -0.894,1.367 0,1.367Z" style="fill:#fccc67;fill-rule:nonzero;"/><path d="M97.161,71.872c0.894,0 0.894,-1.367 0,-1.367c-0.894,0 -0.894,1.367 0,1.367Z" style="fill:#fccc67;fill-rule:nonzero;"/><path d="M77.445,96.267c0.894,0 0.894,-1.367 0,-1.367c-0.894,0 -0.894,1.367 0,1.367Z" style="fill:#fccc67;fill-rule:nonzero;"/><path d="M134.122,71.346c0.894,0 0.894,-1.367 0,-1.367c-0.894,0 -0.894,1.367 0,1.367Z" style="fill:#fccc67;fill-rule:nonzero;"/><path d="M84.543,65.3c0.893,0 0.893,-1.367 0,-1.367c-0.894,0 -0.894,1.367 0,1.367Z" style="fill:#fccc67;fill-rule:nonzero;"/><path d="M104.154,82.229c0.683,0 0.683,-1.104 0,-1.104c-0.684,0 -0.684,1.104 0,1.104Z" style="fill:#fccc67;fill-rule:nonzero;"/><path d="M132.65,90.904c0.368,0 0.368,-0.525 0,-0.525c-0.368,0 -0.368,0.525 0,0.525Z" style="fill:#fccc67;fill-rule:nonzero;"/><path d="M127.182,94.217c0.368,0 0.368,-0.526 0,-0.526c-0.368,0 -0.368,0.526 0,0.526Z" style="fill:#fccc67;fill-rule:nonzero;"/><path d="M116.562,73.028c0.368,0 0.368,-0.525 0,-0.525c-0.369,0 -0.316,0.525 0,0.525Z" style="fill:#fccc67;fill-rule:nonzero;"/><path d="M117.298,92.166c0.368,0 0.368,-0.526 0,-0.526c-0.368,0 -0.316,0.526 0,0.526Z" style="fill:#fccc67;fill-rule:nonzero;"/><path d="M84.648,84.332c0.368,0 0.368,-0.525 0,-0.525c-0.368,0 -0.368,0.525 0,0.525Z" style="fill:#fccc67;fill-rule:nonzero;"/><path d="M91.588,90.063c0.368,0 0.368,-0.526 0,-0.526c-0.368,0 -0.368,0.526 0,0.526Z" style="fill:#fccc67;fill-rule:nonzero;"/><path d="M120.557,89.012c0.368,0 0.368,-0.526 0,-0.526c-0.315,-0.053 -0.315,0.526 0,0.526Z" style="fill:#fccc67;fill-rule:nonzero;"/><path d="M131.073,77.76c0.368,0 0.368,-0.526 0,-0.526c-0.368,0 -0.368,0.526 0,0.526Z" style="fill:#fccc67;fill-rule:nonzero;"/><path d="M124.027,74.869c0.368,0 0.368,-0.526 0,-0.526c-0.368,-0.053 -0.368,0.526 0,0.526Z" style="fill:#fccc67;fill-rule:nonzero;"/><path d="M120.662,79.706c0.368,0 0.368,-0.526 0,-0.526c-0.368,-0.053 -0.368,0.526 0,0.526Z" style="fill:#fccc67;fill-rule:nonzero;"/><path d="M76.446,78.601c0.368,0 0.368,-0.525 0,-0.525c-0.368,0 -0.368,0.525 0,0.525Z" style="fill:#fccc67;fill-rule:nonzero;"/><path d="M81.546,91.43c0.368,0 0.368,-0.526 0,-0.526c-0.368,0 -0.368,0.526 0,0.526Z" style="fill:#fccc67;fill-rule:nonzero;"/><path d="M63.091,75.762c0.369,0 0.369,-0.525 0,-0.525c-0.315,-0.053 -0.315,0.525 0,0.525Z" style="fill:#fccc67;fill-rule:nonzero;"/><path d="M86.856,71.188c0.368,0 0.368,-0.526 0,-0.526c-0.368,0 -0.368,0.526 0,0.526Z" style="fill:#fccc67;fill-rule:nonzero;"/><path d="M106.887,67.928c0.369,0 0.369,-0.525 0,-0.525c-0.368,0 -0.315,0.525 0,0.525Z" style="fill:#fccc67;fill-rule:nonzero;"/><path d="M109.832,79.6c0.368,0 0.368,-0.525 0,-0.525c-0.368,-0.053 -0.368,0.525 0,0.525Z" style="fill:#fccc67;fill-rule:nonzero;"/><path d="M135.91,95.478c0.368,0 0.368,-0.525 0,-0.525c-0.316,-0.053 -0.316,0.525 0,0.525Z" style="fill:#fccc67;fill-rule:nonzero;"/><path d="M66.772,93.849c0.368,0 0.368,-0.526 0,-0.526c-0.368,-0.053 -0.368,0.526 0,0.526Z" style="fill:#fccc67;fill-rule:nonzero;"/><path d="M75.868,73.396c0.368,0 0.368,-0.525 0,-0.525c-0.369,0 -0.316,0.525 0,0.525Z" style="fill:#fccc67;fill-rule:nonzero;"/><path d="M65.037,71.924c0.368,0 0.368,-0.525 0,-0.525c-0.368,0 -0.368,0.525 0,0.525Z" style="fill:#fccc67;fill-rule:nonzero;"/><path d="M114.774,76.656c0.368,0 0.368,-0.526 0,-0.526c-0.368,0 -0.368,0.526 0,0.526Z" style="fill:#fccc67;fill-rule:nonzero;"/><path d="M126.814,83.807c0.368,0 0.368,-0.526 0,-0.526c-0.368,0 -0.368,0.526 0,0.526Z" style="fill:#fccc67;fill-rule:nonzero;"/><path d="M106.73,90.904c0.368,0 0.368,-0.525 0,-0.525c-0.368,0 -0.368,0.525 0,0.525Z" style="fill:#fccc67;fill-rule:nonzero;"/><path d="M106.73,87.066c0.368,0 0.368,-0.526 0,-0.526c-0.368,0 -0.368,0.526 0,0.526Z" style="fill:#fccc67;fill-rule:nonzero;"/><path d="M137.224,71.924c0.368,0 0.368,-0.525 0,-0.525c-0.368,0 -0.368,0.525 0,0.525Z" style="fill:#fccc67;fill-rule:nonzero;"/><path d="M122.397,66.088c0.369,0 0.369,-0.525 0,-0.525c-0.315,-0.053 -0.315,0.525 0,0.525Z" style="fill:#fccc67;fill-rule:nonzero;"/><path d="M91.009,74.869c0.368,0 0.368,-0.526 0,-0.526c-0.368,0 -0.315,0.526 0,0.526Z" style="fill:#fccc67;fill-rule:nonzero;"/><path d="M68.559,84.175c0.368,0 0.368,-0.526 0,-0.526c-0.368,0 -0.315,0.526 0,0.526Z" style="fill:#fccc67;fill-rule:nonzero;"/><path d="M100,55.678" style="fill:none;stroke-width:0.55px;stroke:#fccc67;"/><path d="M197.003,11.619c-63.827,-14.774 -130.179,-14.774 -194.006,0c0.473,1.683 -0.578,3.365 -2.419,3.838c2.471,8.097 4.89,16.194 7.361,24.291c1.682,-0.421 3.47,0.631 3.943,2.313c57.992,-13.407 118.244,-13.407 176.236,0c0.473,-1.682 2.261,-2.734 3.943,-2.313c2.471,-8.097 4.89,-16.194 7.361,-24.291c-1.788,-0.473 -2.892,-2.155 -2.419,-3.838Z" style="fill:#fee69f;fill-rule:nonzero;"/><path d="M12.145,41.588c-0.631,-1.525 -2.261,-2.524 -3.943,-2.314c-2.366,-7.833 -4.732,-15.72 -7.098,-23.554c1.683,-0.578 2.681,-2.155 2.419,-3.785c63.459,-14.669 129.495,-14.669 193.007,-0.053c-0.263,1.63 0.736,3.207 2.418,3.786c-2.365,7.834 -4.731,15.72 -7.097,23.554c-1.63,-0.21 -3.313,0.736 -3.944,2.313c-57.833,-13.302 -117.928,-13.302 -175.762,0.053Z" style="fill:#9a1f22;fill-rule:nonzero;"/><path d="M12.829,39.905c-0.842,-1.104 -2.103,-1.84 -3.523,-2.05c-2.103,-7.15 -4.259,-14.301 -6.362,-21.399c1.157,-0.788 1.946,-2.05 2.156,-3.365c62.46,-14.195 127.34,-14.195 189.8,0c0.21,1.315 0.999,2.577 2.156,3.365c-2.103,7.151 -4.259,14.301 -6.362,21.399c-1.367,0.21 -2.681,0.946 -3.523,2.05c-57.36,-13.091 -116.982,-13.091 -174.342,0Z" style="fill:#9a1f22;fill-rule:nonzero;"/><path d="M194.637,13.302c0.263,1.262 0.999,2.418 2.103,3.26c-2.103,7.045 -4.153,14.037 -6.256,21.083c-1.315,0.262 -2.524,0.946 -3.365,1.997c-57.308,-13.038 -116.825,-13.038 -174.185,0c-0.841,-0.998 -2.051,-1.735 -3.365,-1.997c-2.103,-7.046 -4.154,-14.038 -6.257,-21.083c1.104,-0.789 1.84,-1.998 2.103,-3.26c62.251,-14.196 126.919,-14.196 189.222,0M195.163,12.829c-62.618,-14.301 -127.708,-14.301 -190.326,0c-0.158,1.419 -0.946,2.681 -2.208,3.47c2.155,7.255 4.311,14.511 6.467,21.766c1.419,0.158 2.786,0.947 3.627,2.103c57.466,-13.091 117.14,-13.091 174.606,0c0.841,-1.156 2.156,-1.945 3.628,-2.103c2.156,-7.255 4.311,-14.511 6.467,-21.766c-1.262,-0.789 -2.103,-2.051 -2.261,-3.47Z" style="fill:#fee69f;fill-rule:nonzero;"/><path d="M18.402,30.967c-0.211,-0.788 -0.421,-1.577 -0.631,-2.418c0.473,-0.105 0.946,-0.21 1.419,-0.316c-0.683,-2.628 -1.367,-5.257 -1.998,-7.886c-0.473,0.105 -0.893,0.21 -1.367,0.263c0.106,0.42 0.211,0.894 0.368,1.314c-0.946,0.211 -1.892,0.368 -2.839,0.579c-0.368,-1.262 -0.683,-2.577 -1.051,-3.838c3.838,-0.842 7.676,-1.578 11.567,-2.314c0.315,1.315 0.578,2.576 0.893,3.891c-0.946,0.158 -1.892,0.368 -2.839,0.526c-0.105,-0.421 -0.21,-0.894 -0.315,-1.315c-0.421,0.105 -0.894,0.158 -1.315,0.263c0.631,2.629 1.315,5.258 1.946,7.887c0.473,-0.106 0.946,-0.211 1.419,-0.263c0.211,0.788 0.368,1.63 0.579,2.418c-1.946,0.421 -3.891,0.789 -5.836,1.209Z" style="fill:url(#_Linear7);fill-rule:nonzero;"/><g><path d="M22.24,20.4c-0.105,-0.421 -0.211,-0.894 -0.316,-1.315c-0.736,0.158 -1.419,0.263 -2.155,0.421c0.736,2.891 1.419,5.783 2.155,8.675c0.473,-0.105 0.947,-0.21 1.42,-0.263c0.158,0.526 0.263,1.104 0.42,1.63c-1.682,0.315 -3.364,0.631 -4.994,0.999c-0.158,-0.526 -0.263,-1.104 -0.421,-1.63c0.473,-0.105 0.946,-0.21 1.42,-0.316c-0.736,-2.891 -1.472,-5.783 -2.209,-8.622c-0.736,0.158 -1.472,0.315 -2.155,0.473c0.105,0.421 0.21,0.894 0.368,1.315c-0.684,0.157 -1.315,0.262 -1.998,0.42c-0.263,-1.051 -0.578,-2.05 -0.841,-3.102c3.575,-0.736 7.15,-1.472 10.725,-2.155c0.263,1.051 0.473,2.05 0.736,3.102c-0.841,0.105 -1.472,0.21 -2.155,0.368Z" style="fill:#fee69f;fill-rule:nonzero;"/><path d="M18.612,30.652l-0.473,-1.893l0.158,-0.052c0.42,-0.106 0.841,-0.158 1.261,-0.263l-2.155,-8.36c-0.631,0.105 -1.262,0.263 -1.893,0.368l0.368,1.315l-0.158,0.052c-0.683,0.158 -1.314,0.263 -1.998,0.421l-0.105,0.052l-0.946,-3.365l0.158,-0.052c3.522,-0.736 7.15,-1.472 10.725,-2.156l0.105,0l0.789,3.365l-0.158,0.053c-0.683,0.105 -1.367,0.263 -1.998,0.368l-0.105,0l-0.315,-1.315c-0.631,0.105 -1.262,0.263 -1.893,0.368l2.05,8.36c0.421,-0.105 0.842,-0.158 1.315,-0.263l0.105,0l0.473,1.893l-0.158,0.052c-1.629,0.316 -3.312,0.631 -4.994,0.999l-0.158,0.053ZM18.454,28.97l0.368,1.366c1.578,-0.315 3.207,-0.63 4.732,-0.946l-0.315,-1.367c-0.421,0.105 -0.842,0.158 -1.315,0.263l-0.105,0l-2.208,-8.938l0.158,-0.053c0.736,-0.157 1.419,-0.262 2.155,-0.42l0.105,0l0.316,1.314c0.578,-0.105 1.157,-0.21 1.735,-0.315l-0.684,-2.839c-3.47,0.631 -6.992,1.367 -10.41,2.103l0.736,2.839c0.579,-0.105 1.157,-0.263 1.735,-0.368l-0.368,-1.315l0.158,-0.052c0.736,-0.158 1.472,-0.316 2.208,-0.473l0.105,0l0.053,0.105l2.261,8.78l-0.158,0.053c-0.421,0.105 -0.841,0.157 -1.262,0.263Z" style="fill:#fff;fill-rule:nonzero;"/></g><path d="M34.753,27.918c-0.421,-1.945 -0.789,-3.838 -1.209,-5.783c-0.263,-1.262 -0.631,-1.42 -1.841,-1.21c-0.525,0.105 -1.104,0.211 -1.524,0.368c0.368,1.578 0.683,3.155 1.051,4.732c0.421,-0.052 0.842,-0.157 1.21,-0.21c0.157,0.789 0.315,1.577 0.525,2.366c-1.787,0.315 -3.575,0.631 -5.362,0.946c-0.158,-0.788 -0.369,-1.577 -0.526,-2.366c0.42,-0.052 0.841,-0.157 1.209,-0.21c-0.631,-2.734 -1.262,-5.468 -1.84,-8.202c-0.473,0.105 -0.947,0.158 -1.367,0.263c-0.158,-0.789 -0.368,-1.577 -0.526,-2.366c1.472,-0.263 2.997,-0.526 4.469,-0.789c0.263,1.157 0.473,2.261 0.736,3.418c0.578,-0.21 1.262,-0.421 1.893,-0.526c3.68,-0.631 4.574,1.367 4.889,3.155c0.211,1.156 0.474,2.313 0.684,3.522c0.421,-0.052 0.841,-0.105 1.262,-0.21c0.158,0.789 0.315,1.577 0.473,2.366c-1.472,0.263 -2.839,0.526 -4.206,0.736Z" style="fill:url(#_Linear8);fill-rule:nonzero;"/><g><path d="M38.118,25.342c0.105,0.526 0.21,1.051 0.315,1.577c-0.42,0.053 -0.841,0.105 -1.209,0.21c-0.684,0.105 -1.42,0.211 -2.103,0.316c-0.368,-1.788 -0.736,-3.575 -1.104,-5.416c-0.316,-1.524 -0.947,-1.735 -2.314,-1.524c-0.788,0.105 -1.472,0.315 -1.892,0.525c0.42,1.841 0.788,3.628 1.209,5.468c0.421,-0.052 0.841,-0.157 1.209,-0.21c0.105,0.526 0.211,1.052 0.316,1.577c-0.421,0.053 -0.842,0.158 -1.21,0.211c-0.736,0.105 -1.419,0.263 -2.155,0.368c-0.421,0.052 -0.841,0.157 -1.209,0.21c-0.106,-0.526 -0.263,-1.051 -0.368,-1.577c0.42,-0.053 0.841,-0.158 1.209,-0.211c-0.684,-2.996 -1.367,-5.993 -1.998,-8.99c-0.473,0.105 -0.946,0.158 -1.42,0.263c-0.105,-0.526 -0.263,-1.052 -0.368,-1.577c0.473,-0.106 0.947,-0.158 1.42,-0.263c0.736,-0.158 1.472,-0.263 2.208,-0.368c0.263,1.156 0.526,2.366 0.789,3.522c0.525,-0.263 1.367,-0.526 2.313,-0.683c3.365,-0.579 4.101,1.104 4.416,2.839c0.263,1.314 0.526,2.576 0.789,3.89c0.316,0 0.736,-0.105 1.157,-0.157Z" style="fill:#fee69f;fill-rule:nonzero;"/><path d="M27.76,28.864l-0.42,-1.84l0.157,0c0.368,-0.052 0.736,-0.158 1.104,-0.21l-1.945,-8.728c-0.42,0.053 -0.841,0.158 -1.262,0.211l-0.105,0l-0.42,-1.841l0.157,0c0.473,-0.105 0.947,-0.157 1.42,-0.263c0.736,-0.157 1.472,-0.262 2.208,-0.368l0.105,0l0.736,3.47c0.579,-0.262 1.42,-0.525 2.156,-0.63c0.421,-0.053 0.841,-0.106 1.209,-0.106c2.419,0 3.05,1.525 3.365,3.05l0.736,3.785c0.368,-0.052 0.736,-0.105 1.104,-0.157l0.105,0l0.368,1.84l-0.157,0c-0.421,0.052 -0.842,0.105 -1.21,0.21c-0.683,0.105 -1.419,0.21 -2.103,0.316l-0.105,0l-1.156,-5.521c-0.263,-1.262 -0.737,-1.472 -1.42,-1.472c-0.21,0 -0.421,0 -0.736,0.052c-0.631,0.106 -1.315,0.263 -1.788,0.474l1.157,5.205c0.368,-0.053 0.736,-0.105 1.104,-0.211l0.105,0l0.368,1.841l-1.367,0.21c-0.736,0.105 -1.419,0.263 -2.155,0.368l-1.315,0.315ZM27.708,27.234l0.315,1.315l1.104,-0.21c0.736,-0.106 1.42,-0.263 2.156,-0.368l1.104,-0.211l-0.263,-1.314c-0.368,0.052 -0.736,0.105 -1.104,0.21l-0.105,0l-1.262,-5.678l0.105,-0.053c0.526,-0.21 1.209,-0.42 1.945,-0.525c0.316,-0.053 0.579,-0.053 0.789,-0.053c0.946,0 1.42,0.473 1.683,1.682l1.104,5.258c0.683,-0.105 1.314,-0.21 1.998,-0.315c0.368,-0.053 0.736,-0.106 1.104,-0.158l-0.263,-1.315c-0.368,0.053 -0.736,0.106 -1.104,0.158l-0.105,0l-0.789,-4.048c-0.316,-1.472 -0.841,-2.839 -3.102,-2.839c-0.368,0 -0.736,0.052 -1.157,0.105c-0.841,0.158 -1.682,0.368 -2.261,0.683l-0.157,0.053l-0.789,-3.575c-0.683,0.105 -1.42,0.263 -2.103,0.368c-0.421,0.052 -0.841,0.158 -1.262,0.21l0.316,1.314c0.42,-0.052 0.841,-0.157 1.261,-0.21l0.106,0l2.103,9.254l-0.158,0c-0.526,0.157 -0.894,0.21 -1.209,0.262Z" style="fill:#fff;fill-rule:nonzero;"/></g><path d="M44.742,26.551c-3.627,0.526 -5.205,-0.631 -5.888,-4.154c-0.789,-4.1 0.946,-5.257 3.785,-5.625c2.997,-0.421 4.522,0.683 4.942,3.522c0.053,0.368 0.106,0.789 0.158,1.473c0,0.105 0,0.262 0,0.368c-1.893,0.262 -3.785,0.525 -5.731,0.788c0.368,1.42 1.157,1.367 2.471,1.209c0.421,-0.052 1.788,-0.368 2.419,-0.578c0.158,-0.052 0.315,-0.105 0.473,-0.158c0.158,0.842 0.263,1.63 0.421,2.472c-0.105,0.052 -0.211,0.052 -0.316,0.105c-0.683,0.105 -1.682,0.42 -2.734,0.578ZM44.637,20.189c-0.158,-0.841 -0.631,-1.156 -1.524,-1.051c-0.842,0.105 -1.315,0.42 -1.367,1.419c0.946,-0.105 1.892,-0.21 2.891,-0.368Z" style="fill:url(#_Linear9);fill-rule:nonzero;"/><g><path d="M41.535,22.503c0.421,2.155 1.578,2.103 3.05,1.945c0.42,-0.053 1.84,-0.368 2.471,-0.578c0.105,0.525 0.157,1.104 0.263,1.629c-0.631,0.211 -1.683,0.526 -2.682,0.684c-3.47,0.473 -4.784,-0.578 -5.415,-3.838c-0.736,-3.838 0.736,-4.837 3.417,-5.205c2.366,-0.316 3.996,0.263 4.469,3.154c0.053,0.421 0.105,0.894 0.158,1.42c-1.84,0.263 -3.785,0.526 -5.731,0.789ZM45.058,20.557c0,-0.157 0,-0.263 -0.053,-0.368c-0.21,-1.209 -0.946,-1.524 -2.05,-1.367c-1.157,0.158 -1.84,0.736 -1.683,2.314c1.315,-0.263 2.577,-0.421 3.786,-0.579Z" style="fill:#fee69f;fill-rule:nonzero;"/><path d="M43.218,26.393c-2.366,0 -3.523,-1.156 -4.101,-4.048c-0.368,-1.788 -0.211,-3.05 0.368,-3.891c0.578,-0.788 1.524,-1.209 3.154,-1.472c0.421,-0.052 0.789,-0.105 1.104,-0.105c2.051,0 3.155,1.051 3.523,3.365c0.053,0.368 0.105,0.788 0.158,1.419l0,0.106l-0.105,0c-1.841,0.262 -3.733,0.525 -5.626,0.788c0.315,1.525 1.104,1.788 1.84,1.788c0.316,0 0.631,-0.053 0.999,-0.105c0.421,-0.053 1.788,-0.368 2.471,-0.579l0.158,-0.052l0.315,1.945l-0.105,0.053c-0.526,0.21 -1.63,0.525 -2.681,0.683c-0.526,0.105 -0.999,0.105 -1.472,0.105ZM43.796,17.192c-0.315,0 -0.683,0.053 -1.052,0.106c-1.577,0.21 -2.471,0.63 -2.944,1.367c-0.578,0.788 -0.683,1.997 -0.368,3.68c0.526,2.786 1.577,3.838 3.838,3.838c0.421,0 0.894,-0.053 1.42,-0.105c0.999,-0.158 1.945,-0.421 2.523,-0.631l-0.21,-1.367c-0.736,0.21 -1.945,0.473 -2.366,0.578c-0.42,0.053 -0.736,0.105 -1.051,0.105c-1.262,0 -1.893,-0.631 -2.156,-2.103l0,-0.157l0.158,0c1.893,-0.263 3.785,-0.526 5.625,-0.789c-0.052,-0.578 -0.052,-0.946 -0.157,-1.262c-0.368,-2.313 -1.367,-3.26 -3.26,-3.26ZM41.22,21.241l0,-0.158c-0.158,-1.472 0.42,-2.261 1.787,-2.471c1.262,-0.158 1.998,0.315 2.156,1.525c0,0.105 0.053,0.263 0.053,0.42l0,0.105l-0.106,0c-1.261,0.158 -2.471,0.368 -3.733,0.526l-0.157,0.053ZM43.428,18.875c-0.105,0 -0.263,0 -0.421,0.052c-1.209,0.158 -1.63,0.737 -1.577,1.998c1.157,-0.157 2.313,-0.315 3.47,-0.473c0,-0.105 0,-0.158 -0.052,-0.263c-0.106,-0.894 -0.579,-1.314 -1.42,-1.314Z" style="fill:#fff;fill-rule:nonzero;"/></g><path d="M60.042,24.711c-5.678,0.578 -6.204,-3.102 -6.414,-4.522c-0.158,-0.999 -0.316,-2.05 -0.421,-3.049c-0.21,-1.525 -0.736,-5.153 5.258,-5.784c1.524,-0.157 2.786,-0.105 3.733,0c0.105,0 0.21,0 0.368,0.053c0.157,1.209 0.263,2.471 0.42,3.68c-0.946,0.106 -1.892,0.158 -2.839,0.263c-0.052,-0.473 -0.105,-0.946 -0.158,-1.419c-0.368,0 -0.788,0.052 -1.156,0.052c-2.419,0.263 -2.734,1.21 -2.471,2.945c0.157,0.998 0.263,1.997 0.42,2.944c0.211,1.63 0.789,2.523 3.05,2.261c1.314,-0.158 2.629,-0.421 3.417,-0.579c0.158,-0.052 0.316,-0.105 0.473,-0.105c0.106,0.841 0.211,1.683 0.316,2.576c-0.105,0.053 -0.21,0.053 -0.316,0.105c-1.051,0.158 -2.208,0.474 -3.68,0.579Z" style="fill:url(#_Linear10);fill-rule:nonzero;"/><g><path d="M53.628,17.087c-0.211,-1.63 -0.631,-4.784 4.889,-5.362c1.472,-0.158 2.629,-0.106 3.681,0c0.105,0.998 0.21,1.997 0.315,2.996c-0.683,0.053 -1.367,0.105 -2.05,0.211c-0.053,-0.474 -0.105,-0.947 -0.158,-1.42c-0.526,0 -1.052,0.053 -1.577,0.105c-2.839,0.263 -3.102,1.63 -2.839,3.365c0.157,0.999 0.262,1.998 0.42,2.944c0.21,1.683 0.894,2.892 3.47,2.629c1.315,-0.105 2.629,-0.42 3.47,-0.631c0.053,0.579 0.158,1.157 0.211,1.788c-0.947,0.263 -2.051,0.526 -3.471,0.683c-5.152,0.526 -5.73,-2.523 -5.941,-4.206c-0.157,-1.051 -0.315,-2.103 -0.42,-3.102Z" style="fill:#fee69f;fill-rule:nonzero;"/><path d="M58.885,24.553c-4.363,0 -4.784,-3.049 -4.994,-4.364l-0.421,-3.049c-0.105,-0.894 -0.368,-2.419 0.631,-3.628c0.789,-0.999 2.261,-1.63 4.416,-1.893c0.631,-0.052 1.262,-0.105 1.893,-0.105c0.736,0 1.315,0.053 1.788,0.053l0.105,0l0.368,3.207l-0.158,0c-0.683,0.052 -1.367,0.105 -2.05,0.21l-0.158,0l-0.158,-1.419c-0.473,0 -0.946,0.052 -1.419,0.105c-1.21,0.105 -1.946,0.42 -2.366,0.999c-0.368,0.473 -0.473,1.156 -0.368,2.261l0.42,2.944c0.211,1.525 0.736,2.523 2.682,2.523c0.21,0 0.42,0 0.683,-0.052c1.315,-0.158 2.682,-0.421 3.47,-0.631l0.158,-0.053l0.21,2.051l-0.105,0.052c-0.894,0.263 -1.998,0.526 -3.47,0.684c-0.421,0.053 -0.789,0.105 -1.157,0.105ZM60.41,11.777c-0.631,0 -1.262,0.053 -1.893,0.105c-2.05,0.211 -3.47,0.789 -4.206,1.788c-0.894,1.156 -0.683,2.576 -0.578,3.417l0.421,3.05c0.21,1.367 0.578,4.153 4.731,4.153c0.368,0 0.736,0 1.104,-0.052c1.367,-0.158 2.472,-0.368 3.313,-0.631l-0.158,-1.472c-0.841,0.21 -2.103,0.473 -3.365,0.578c-0.263,0 -0.473,0.053 -0.683,0.053c-2.261,0 -2.787,-1.42 -2.945,-2.787l-0.42,-2.944c-0.105,-0.842 -0.158,-1.735 0.42,-2.471c0.474,-0.579 1.315,-0.947 2.577,-1.052c0.525,-0.052 1.051,-0.052 1.577,-0.105l0.105,0l0.158,1.419c0.578,-0.052 1.157,-0.105 1.787,-0.157l-0.315,-2.734c-0.421,-0.105 -0.999,-0.158 -1.63,-0.158Z" style="fill:#fff;fill-rule:nonzero;"/></g><path d="M72.24,23.554c-0.158,-1.945 -0.316,-3.89 -0.526,-5.888c-0.105,-1.262 -0.473,-1.473 -1.682,-1.367c-0.579,0.052 -1.105,0.105 -1.525,0.263c0.158,1.629 0.315,3.207 0.473,4.837c0.421,-0.053 0.841,-0.053 1.262,-0.106c0.052,0.789 0.158,1.578 0.21,2.366c-1.787,0.158 -3.628,0.263 -5.415,0.421c-0.105,-0.789 -0.158,-1.577 -0.263,-2.366c0.421,-0.053 0.841,-0.053 1.262,-0.105c-0.316,-2.787 -0.579,-5.573 -0.894,-8.307c-0.473,0.052 -0.946,0.105 -1.42,0.105c-0.105,-0.789 -0.157,-1.577 -0.262,-2.366c1.524,-0.158 2.996,-0.263 4.521,-0.368c0.105,1.157 0.21,2.313 0.316,3.47c0.578,-0.158 1.261,-0.263 1.945,-0.315c3.733,-0.263 4.364,1.787 4.469,3.575c0.105,1.209 0.158,2.366 0.263,3.575c0.42,0 0.841,-0.053 1.262,-0.053c0.052,0.789 0.105,1.578 0.157,2.366c-1.367,0.053 -2.734,0.158 -4.153,0.263Z" style="fill:url(#_Linear11);fill-rule:nonzero;"/><g><path d="M75.868,21.293c0.052,0.526 0.105,1.052 0.105,1.578c-0.421,0 -0.842,0.052 -1.262,0.052c-0.736,0.053 -1.42,0.105 -2.156,0.158c-0.158,-1.84 -0.315,-3.628 -0.473,-5.468c-0.105,-1.525 -0.736,-1.84 -2.103,-1.735c-0.789,0.053 -1.472,0.21 -1.945,0.368c0.157,1.84 0.368,3.68 0.525,5.521c0.421,-0.053 0.842,-0.053 1.262,-0.106c0.053,0.526 0.105,1.052 0.158,1.578c-0.421,0.052 -0.841,0.052 -1.262,0.105c-0.736,0.052 -1.419,0.105 -2.155,0.158c-0.421,0.052 -0.842,0.052 -1.262,0.105c-0.053,-0.526 -0.105,-1.052 -0.158,-1.578c0.421,-0.052 0.841,-0.052 1.262,-0.105c-0.316,-3.049 -0.631,-6.099 -0.947,-9.095c-0.473,0.052 -0.946,0.105 -1.419,0.105c-0.053,-0.526 -0.105,-1.052 -0.158,-1.578c0.473,-0.052 0.946,-0.105 1.42,-0.105c0.736,-0.052 1.472,-0.105 2.26,-0.157c0.106,1.209 0.211,2.366 0.368,3.575c0.526,-0.211 1.367,-0.421 2.366,-0.473c3.365,-0.263 3.891,1.524 4.049,3.207c0.105,1.314 0.21,2.629 0.315,3.943c0.368,0 0.789,0 1.21,-0.053Z" style="fill:#fee69f;fill-rule:nonzero;"/><path d="M65.247,23.817l-0.21,-1.84l0.158,0c0.368,-0.053 0.736,-0.053 1.104,-0.105l-0.947,-8.833c-0.42,0.052 -0.841,0.052 -1.262,0.105l-0.157,0l-0.211,-1.84l0.158,0c0.473,-0.053 0.946,-0.105 1.42,-0.105c0.736,-0.053 1.472,-0.105 2.26,-0.158l0.158,0l0.368,3.523c0.631,-0.211 1.42,-0.368 2.208,-0.421c3.47,-0.263 4.049,1.577 4.207,3.365l0.315,3.838c0.368,0 0.736,-0.053 1.104,-0.053l0.158,0l0.158,1.893l-0.158,0c-0.421,0 -0.841,0.053 -1.262,0.053c-0.736,0.052 -1.42,0.105 -2.156,0.157l-0.157,0l-0.474,-5.73c-0.105,-1.367 -0.63,-1.63 -1.524,-1.63c-0.158,0 -0.263,0 -0.421,0c-0.683,0.052 -1.314,0.157 -1.84,0.315l0.526,5.31c0.368,-0.052 0.736,-0.052 1.104,-0.105l0.158,0l0.157,1.84l-1.367,0.106c-0.736,0.052 -1.419,0.105 -2.155,0.157l-1.42,0.158ZM65.352,22.24l0.158,1.314l1.104,-0.105c0.736,-0.053 1.42,-0.105 2.156,-0.158l1.104,-0.105l-0.105,-1.314c-0.368,0.052 -0.736,0.052 -1.104,0.105l-0.158,0l-0.579,-5.784l0.106,-0.052c0.525,-0.158 1.261,-0.316 1.998,-0.368c1.524,-0.105 2.155,0.315 2.26,1.84l0.474,5.363c0.683,-0.053 1.314,-0.105 1.997,-0.158c0.368,0 0.736,-0.052 1.105,-0.052l-0.106,-1.315c-0.368,0 -0.736,0.053 -1.104,0.053l-0.157,0l-0.316,-4.101c-0.158,-1.735 -0.683,-3.313 -3.891,-3.102c-0.841,0.052 -1.682,0.21 -2.313,0.473l-0.158,0.052l-0.368,-3.627c-0.683,0.052 -1.419,0.105 -2.103,0.157c-0.42,0.053 -0.841,0.053 -1.262,0.106l0.158,1.314c0.421,-0.053 0.841,-0.053 1.262,-0.105l0.158,0l0.999,9.411l-0.158,0c-0.421,0.053 -0.789,0.105 -1.157,0.158Z" style="fill:#fff;fill-rule:nonzero;"/></g><path d="M82.334,23.134c-3.627,0.157 -5.1,-1.105 -5.31,-4.68c-0.315,-4.153 1.525,-5.152 4.364,-5.257c2.997,-0.158 4.364,1.104 4.522,3.943c0,0.368 0,0.841 -0.053,1.472c0,0.105 0,0.263 0,0.368c-1.893,0.053 -3.838,0.158 -5.731,0.263c0.21,1.472 0.999,1.472 2.314,1.419c0.42,0 1.787,-0.157 2.471,-0.368c0.157,-0.052 0.315,-0.105 0.473,-0.105c0.052,0.841 0.052,1.683 0.105,2.471c-0.105,0.053 -0.21,0.053 -0.315,0.053c-0.737,0.158 -1.788,0.368 -2.84,0.421ZM82.913,16.772c-0.053,-0.841 -0.473,-1.209 -1.42,-1.157c-0.841,0.053 -1.367,0.263 -1.525,1.315c0.999,-0.053 1.998,-0.106 2.945,-0.158Z" style="fill:url(#_Linear12);fill-rule:nonzero;"/><g><path d="M79.653,18.822c0.158,2.208 1.314,2.261 2.787,2.208c0.42,0 1.84,-0.157 2.523,-0.368c0,0.579 0.053,1.105 0.053,1.683c-0.684,0.158 -1.683,0.368 -2.734,0.421c-3.523,0.157 -4.679,-0.999 -4.89,-4.312c-0.263,-3.89 1.315,-4.732 3.996,-4.837c2.419,-0.105 3.943,0.631 4.048,3.575c0,0.421 0,0.894 -0.052,1.42c-1.893,0 -3.786,0.105 -5.731,0.21ZM83.333,17.192c0,-0.157 0,-0.262 0,-0.368c-0.052,-1.209 -0.788,-1.629 -1.84,-1.577c-1.157,0.053 -1.893,0.526 -1.945,2.103c1.262,-0.052 2.524,-0.105 3.785,-0.158Z" style="fill:#fee69f;fill-rule:nonzero;"/><path d="M81.703,22.871c-3.049,0 -4.206,-1.157 -4.469,-4.469c-0.105,-1.84 0.158,-3.05 0.842,-3.838c0.631,-0.736 1.63,-1.052 3.259,-1.157c0.158,0 0.316,0 0.421,0c2.524,0 3.68,1.157 3.786,3.733c0,0.368 0,0.788 -0.053,1.419l0,0.106l-0.105,0c-1.84,0.052 -3.733,0.157 -5.678,0.262c0.157,1.63 0.893,1.946 2.103,1.946c0.157,0 0.368,0 0.525,0c0.421,0 1.841,-0.158 2.524,-0.368l0.158,-0.053l0.105,1.945l-0.105,0.053c-0.684,0.158 -1.735,0.368 -2.734,0.421c-0.158,0 -0.368,0 -0.579,0ZM81.809,13.67c-0.158,0 -0.263,0 -0.421,0c-1.577,0.052 -2.471,0.368 -3.102,1.051c-0.631,0.736 -0.894,1.893 -0.789,3.628c0.263,3.365 1.42,4.364 4.785,4.206c0.946,-0.052 1.893,-0.21 2.576,-0.368l-0.053,-1.367c-0.736,0.158 -1.997,0.316 -2.418,0.316c-0.21,0 -0.368,0 -0.526,0c-1.314,0 -2.261,-0.421 -2.366,-2.366l0,-0.158l0.158,0c1.945,-0.105 3.838,-0.158 5.678,-0.263c0.053,-0.578 0.053,-0.946 0,-1.262c-0.105,-2.366 -1.156,-3.417 -3.522,-3.417ZM79.443,17.508l0,-0.158c0,-1.525 0.683,-2.208 2.05,-2.261c1.262,-0.052 1.945,0.526 1.998,1.683l0,0.526l-0.105,0c-1.262,0.052 -2.524,0.105 -3.786,0.157l-0.157,0.053ZM81.651,15.352c-0.053,0 -0.105,0 -0.158,0c-1.209,0.053 -1.735,0.579 -1.787,1.84c1.156,-0.052 2.313,-0.105 3.47,-0.157c0,-0.105 0,-0.158 0,-0.263c0,-0.947 -0.526,-1.42 -1.525,-1.42Z" style="fill:#fff;fill-rule:nonzero;"/></g><path d="M92.324,22.818c-3.628,0.053 -5.047,-1.209 -5.205,-4.837c-0.158,-4.153 1.682,-5.1 4.521,-5.152c2.997,-0.053 4.364,1.209 4.364,4.048c0,0.368 0,0.841 -0.052,1.472c0,0.105 0,0.263 -0.053,0.368c-1.893,0 -3.838,0.053 -5.731,0.105c0.158,1.472 0.947,1.525 2.261,1.472c0.421,0 1.788,-0.157 2.471,-0.262c0.158,-0.053 0.316,-0.053 0.473,-0.106c0,0.842 0,1.683 0.053,2.471c-0.105,0 -0.21,0.053 -0.316,0.053c-0.683,0.158 -1.735,0.368 -2.786,0.368ZM93.113,16.509c0,-0.841 -0.421,-1.209 -1.367,-1.209c-0.842,0 -1.367,0.263 -1.525,1.262c0.946,0 1.893,-0.053 2.892,-0.053Z" style="fill:url(#_Linear13);fill-rule:nonzero;"/><g><path d="M89.748,18.402c0.052,2.208 1.261,2.313 2.734,2.26c0.42,0 1.84,-0.157 2.523,-0.315c0,0.578 0,1.104 0,1.682c-0.683,0.158 -1.735,0.316 -2.734,0.368c-3.522,0.053 -4.626,-1.104 -4.784,-4.469c-0.158,-3.89 1.419,-4.679 4.153,-4.731c2.419,-0.053 3.891,0.736 3.944,3.68c0,0.421 0,0.894 -0.053,1.42c-1.893,0.052 -3.838,0.105 -5.783,0.105ZM93.533,16.877c0,-0.158 0,-0.263 0,-0.368c0,-1.209 -0.736,-1.63 -1.787,-1.63c-1.157,0 -1.893,0.473 -1.998,2.103c1.261,-0.052 2.523,-0.052 3.785,-0.105Z" style="fill:#fee69f;fill-rule:nonzero;"/><path d="M92.008,22.555c-3.259,0 -4.469,-1.209 -4.626,-4.574c-0.053,-1.84 0.21,-3.049 0.946,-3.838c0.684,-0.683 1.683,-1.052 3.312,-1.052c0.053,0 0.158,0 0.211,0c2.681,0 3.838,1.157 3.89,3.786c0,0.473 -0.052,0.999 -0.052,1.42l0,0.105l-0.105,0c-1.946,0 -3.838,0.052 -5.679,0.105c0.106,1.84 1.052,1.998 2.261,1.998c0.105,0 0.21,0 0.316,0c0.42,0 1.84,-0.158 2.523,-0.316l0.158,-0.052l0.053,1.945l-0.106,0c-0.683,0.158 -1.735,0.315 -2.734,0.368c-0.157,0.105 -0.262,0.105 -0.368,0.105ZM91.903,13.354c-0.052,0 -0.105,0 -0.21,0c-1.577,0.053 -2.524,0.316 -3.102,0.999c-0.684,0.684 -0.946,1.893 -0.894,3.628c0.158,3.312 1.315,4.416 4.627,4.311c0.946,0 1.893,-0.157 2.576,-0.315l0,-1.367c-0.736,0.158 -2.05,0.263 -2.418,0.263c-0.106,0 -0.211,0 -0.316,0c-1.262,0 -2.471,-0.211 -2.524,-2.419l0,-0.157l0.158,0c1.84,-0.053 3.733,-0.106 5.678,-0.106c0.053,-0.42 0.053,-0.893 0.053,-1.261c-0.053,-2.524 -1.157,-3.576 -3.628,-3.576ZM89.59,17.087l0,-0.157c0.052,-1.525 0.736,-2.156 2.103,-2.209l0.053,0c1.209,0 1.84,0.579 1.84,1.735l0,0.526l-0.105,0c-1.262,0 -2.524,0.053 -3.786,0.053l-0.105,0.052ZM91.798,15.037l-0.052,0c-1.21,0 -1.735,0.526 -1.841,1.787c1.157,-0.052 2.314,-0.052 3.47,-0.052c0,-0.105 0,-0.158 0,-0.263c0,-0.999 -0.525,-1.472 -1.577,-1.472Z" style="fill:#fff;fill-rule:nonzero;"/></g><path d="M100.631,22.766c-0.894,0 -1.998,-0.211 -3.102,-0.526c-0.105,-0.053 -0.21,-0.053 -0.263,-0.105c0,-0.999 0,-1.998 0,-3.05c0.894,0 1.84,0 2.734,0c0,0.421 0,0.841 0,1.209c0.263,0.053 0.473,0.053 0.631,0.053c1.314,0 1.314,-0.263 1.314,-0.578c0,-0.211 -0.157,-0.316 -0.683,-0.579c-0.579,-0.263 -1.157,-0.525 -1.683,-0.788c-1.419,-0.631 -2.155,-1.315 -2.208,-2.892c0,-1.998 1.209,-2.787 4.364,-2.787c0.158,0 1.472,0 2.629,0.421c0.105,0.053 0.21,0.053 0.263,0.105c0,0.999 -0.053,1.998 -0.053,2.997c-0.946,0 -1.84,0 -2.786,0c0,-0.315 0,-0.631 0,-0.946c-0.106,0 -0.158,0 -0.211,0c-1.209,0 -1.209,0.263 -1.209,0.315c0,0.21 0,0.21 0.421,0.421c0.736,0.315 1.472,0.683 2.208,1.051c1.472,0.684 1.945,1.42 1.945,2.787c0,2.418 -1.735,2.892 -4.311,2.892Z" style="fill:url(#_Linear14);fill-rule:nonzero;"/><g><path d="M102.261,14.879c-0.368,-0.053 -0.579,-0.053 -0.631,-0.053c-1.367,0 -1.63,0.316 -1.63,0.737c0,0.473 0.158,0.525 0.683,0.788c0.737,0.316 1.473,0.684 2.156,0.999c1.315,0.578 1.735,1.209 1.735,2.471c-0.052,1.84 -0.999,2.524 -3.943,2.524c-0.894,0 -1.893,-0.158 -2.944,-0.526c0,-0.789 0,-1.577 0,-2.366c0.631,0 1.261,0 1.945,0c0,0.368 0,0.736 0,1.104c0.368,0.158 0.789,0.158 1.051,0.158c1.42,0 1.736,-0.315 1.736,-0.999c0,-0.526 -0.421,-0.736 -0.894,-0.946c-0.579,-0.263 -1.157,-0.526 -1.683,-0.789c-1.419,-0.631 -1.945,-1.209 -1.945,-2.524c0,-1.577 0.789,-2.366 3.943,-2.366c0.473,0 1.577,0.053 2.524,0.421c0,0.789 0,1.525 -0.053,2.313c-0.631,0 -1.314,0 -1.945,0c-0.105,-0.315 -0.105,-0.63 -0.105,-0.946Z" style="fill:#fee69f;fill-rule:nonzero;"/><path d="M100.736,22.503l-0.053,0c-0.893,0 -1.945,-0.158 -2.996,-0.526l-0.106,-0.053l0,-2.576l2.261,0l0,1.157c0.368,0.105 0.684,0.105 0.894,0.105l0.053,0c1.472,0 1.577,-0.368 1.577,-0.841c0,-0.421 -0.316,-0.579 -0.841,-0.842c-0.579,-0.262 -1.157,-0.525 -1.683,-0.788c-1.367,-0.631 -2.05,-1.209 -2.05,-2.629c0,-0.736 0.158,-1.262 0.526,-1.63c0.578,-0.578 1.629,-0.841 3.47,-0.841l0.052,0c0.526,0 1.63,0.105 2.576,0.421l0.106,0.052l-0.053,2.524l-0.158,0c-0.631,0 -1.314,0 -1.945,0l-0.158,0l0,-0.947c-0.158,0 -0.315,0 -0.473,0l-0.053,0c-0.736,0 -1.156,0.106 -1.367,0.263c-0.052,0.053 -0.105,0.158 -0.105,0.316c0,0.368 0.105,0.42 0.579,0.631c0.736,0.368 1.472,0.683 2.208,1.051c1.367,0.631 1.787,1.262 1.787,2.576c-0.105,1.841 -1.156,2.577 -4.048,2.577ZM97.844,21.714c0.999,0.315 1.998,0.473 2.839,0.473l0.053,0c2.787,0 3.733,-0.578 3.733,-2.418c0,-1.157 -0.368,-1.735 -1.63,-2.314c-0.736,-0.315 -1.472,-0.683 -2.156,-0.999c-0.525,-0.263 -0.736,-0.368 -0.736,-0.893c0,-0.211 0.053,-0.368 0.211,-0.526c0.263,-0.263 0.736,-0.368 1.524,-0.368l0.053,0c0.21,0 0.421,0 0.631,0.052l0.105,0l0,0.947c0.578,0 1.104,0 1.683,0l0.052,-2.051c-0.894,-0.263 -1.893,-0.368 -2.366,-0.368l-0.052,0c-1.683,0 -2.734,0.263 -3.26,0.789c-0.316,0.315 -0.473,0.788 -0.473,1.472c0,1.209 0.42,1.735 1.892,2.418c0.579,0.263 1.157,0.526 1.683,0.789c0.473,0.21 0.999,0.473 0.999,1.052c0,0.841 -0.473,1.104 -1.84,1.104l-0.053,0c-0.21,0 -0.631,0 -1.051,-0.158l-0.106,-0.053l0,-1.104c-0.578,0 -1.104,0 -1.682,0l-0.053,2.156Z" style="fill:#fff;fill-rule:nonzero;"/></g><path d="M111.146,22.923c-3.628,-0.105 -4.942,-1.472 -4.889,-5.047c0.052,-4.154 1.997,-4.995 4.837,-4.942c2.996,0.105 4.258,1.419 4.153,4.258c0,0.368 -0.052,0.842 -0.158,1.473c0,0.105 -0.052,0.262 -0.052,0.368c-1.893,-0.053 -3.838,-0.106 -5.731,-0.158c0.053,1.472 0.841,1.577 2.156,1.577c0.42,0 1.84,-0.052 2.471,-0.158c0.157,-0.052 0.315,-0.052 0.525,-0.105c-0.052,0.841 -0.052,1.683 -0.105,2.471c-0.105,0 -0.21,0.053 -0.315,0.053c-0.789,0.053 -1.84,0.21 -2.892,0.21ZM112.303,16.614c0.052,-0.841 -0.368,-1.262 -1.315,-1.262c-0.841,0 -1.367,0.211 -1.629,1.21c1.051,0 1.997,0.052 2.944,0.052Z" style="fill:url(#_Linear15);fill-rule:nonzero;"/><g><path d="M108.885,18.402c-0.052,2.208 1.104,2.366 2.577,2.418c0.42,0 1.84,-0.052 2.576,-0.158c0,0.579 -0.053,1.105 -0.053,1.683c-0.683,0.105 -1.735,0.263 -2.734,0.21c-3.522,-0.105 -4.574,-1.314 -4.521,-4.679c0.052,-3.891 1.735,-4.627 4.416,-4.522c2.419,0.053 3.891,0.947 3.733,3.838c0,0.421 -0.053,0.894 -0.158,1.42c-1.998,-0.105 -3.943,-0.158 -5.836,-0.21ZM112.723,17.035c0,-0.158 0.053,-0.263 0.053,-0.368c0.053,-1.21 -0.631,-1.683 -1.682,-1.683c-1.157,-0.052 -1.946,0.421 -2.103,1.998c1.209,0 2.471,0 3.732,0.053Z" style="fill:#fee69f;fill-rule:nonzero;"/><path d="M111.409,22.66c-0.105,0 -0.158,0 -0.263,0c-3.522,-0.105 -4.679,-1.314 -4.627,-4.784c0.053,-4.048 1.893,-4.732 4.575,-4.679c1.472,0.052 2.418,0.368 3.049,1.051c0.578,0.631 0.841,1.63 0.789,2.944c0,0.368 -0.053,0.789 -0.158,1.42l0,0.105l-0.105,0c-1.893,-0.052 -3.786,-0.105 -5.678,-0.158c0,1.893 0.946,2.051 2.418,2.103l0.105,0c0.526,0 1.788,-0.052 2.419,-0.157l0.157,-0.053l-0.105,1.945l-0.105,0c-0.578,0.106 -1.525,0.263 -2.471,0.263ZM110.778,13.407c-2.366,0 -3.891,0.736 -3.943,4.416c-0.053,3.313 0.999,4.417 4.364,4.522c0.946,0 1.945,-0.105 2.629,-0.21l0.052,-1.367c-0.683,0.105 -1.84,0.157 -2.313,0.157l-0.105,0c-1.578,-0.052 -2.787,-0.263 -2.682,-2.523l0,-0.158l0.158,0c1.893,0.053 3.785,0.105 5.678,0.158c0.105,-0.579 0.105,-0.947 0.158,-1.262c0.052,-1.262 -0.158,-2.156 -0.736,-2.787c-0.578,-0.631 -1.472,-0.893 -2.892,-0.946c-0.158,0 -0.263,0 -0.368,0ZM112.829,17.192l-0.106,0c-1.261,-0.052 -2.523,-0.052 -3.785,-0.105l-0.158,0l0,-0.157c0.158,-1.473 0.789,-2.104 2.103,-2.104l0.105,0c0.631,0 1.105,0.211 1.42,0.526c0.315,0.316 0.421,0.736 0.421,1.315c0,0.105 0,0.263 -0.053,0.42l0.053,0.105ZM109.096,16.824c1.156,0.053 2.313,0.053 3.47,0.106c0,-0.106 0,-0.158 0,-0.263c0,-0.474 -0.105,-0.894 -0.316,-1.104c-0.263,-0.263 -0.683,-0.421 -1.209,-0.421l-0.105,0c-1.104,-0.053 -1.683,0.473 -1.84,1.682Z" style="fill:#fff;fill-rule:nonzero;"/></g><path d="M120.662,23.134c0.053,-0.842 0.106,-1.63 0.158,-2.472c0.473,0 0.947,0.053 1.42,0.053c0.21,-2.734 0.368,-5.468 0.578,-8.202c-0.473,-0.052 -0.999,-0.052 -1.472,-0.105c0.053,-0.841 0.105,-1.63 0.158,-2.471c2.313,0.105 4.679,0.263 6.992,0.421c1.21,0.105 2.471,0.262 3.313,0.998c0.841,0.737 1.156,1.893 0.946,3.628c-0.421,3.943 -2.629,4.101 -5.047,3.943c-0.789,-0.052 -1.525,-0.105 -2.314,-0.157c-0.052,0.683 -0.105,1.367 -0.157,2.103c0.473,0.052 0.946,0.052 1.419,0.105c-0.052,0.841 -0.158,1.63 -0.21,2.471c-1.84,-0.105 -3.838,-0.21 -5.784,-0.315ZM127.971,16.351c0.999,0.053 1.524,0.053 1.682,-1.577c0.158,-1.63 -0.421,-1.735 -1.42,-1.788c-0.788,-0.052 -1.577,-0.105 -2.365,-0.157c-0.106,1.104 -0.158,2.208 -0.263,3.364c0.841,0.053 1.629,0.106 2.366,0.158Z" style="fill:url(#_Linear16);fill-rule:nonzero;"/><g><path d="M126.288,21.399c-0.052,0.578 -0.105,1.104 -0.158,1.682c-0.473,-0.053 -0.946,-0.053 -1.419,-0.105c-0.736,-0.053 -1.472,-0.105 -2.208,-0.105c-0.474,-0.053 -0.947,-0.053 -1.42,-0.053c0.053,-0.578 0.053,-1.104 0.105,-1.682c0.473,0 0.947,0.052 1.42,0.052c0.21,-2.997 0.42,-5.993 0.631,-8.99c-0.473,-0.053 -0.999,-0.053 -1.472,-0.105c0.052,-0.579 0.052,-1.105 0.105,-1.683c0.473,0.053 0.999,0.053 1.472,0.105c1.682,0.105 3.365,0.211 5.1,0.316c2.629,0.157 4.258,0.788 3.89,4.206c-0.368,3.417 -1.998,3.733 -4.574,3.575c-0.894,-0.053 -1.787,-0.105 -2.734,-0.158c-0.052,0.947 -0.157,1.893 -0.21,2.892c0.526,-0.053 0.999,0 1.472,0.053ZM127.971,16.772c1.209,0.105 1.945,-0.105 2.155,-1.946c0.158,-1.84 -0.578,-2.155 -1.787,-2.208c-0.947,-0.052 -1.841,-0.105 -2.787,-0.157c-0.105,1.367 -0.21,2.786 -0.315,4.153c0.893,0.053 1.787,0.105 2.734,0.158Z" style="fill:#fee69f;fill-rule:nonzero;"/><path d="M126.288,23.186l-0.158,0c-0.473,-0.052 -0.946,-0.052 -1.419,-0.105c-0.736,-0.053 -1.472,-0.105 -2.208,-0.105c-0.474,-0.053 -0.947,-0.053 -1.42,-0.053l-0.158,0l0.105,-1.945l0.158,0c0.421,0 0.894,0.052 1.315,0.052l0.631,-8.727c-0.474,0 -0.894,-0.053 -1.367,-0.053l-0.158,0l0.105,-1.945l0.158,0c0.473,0.053 0.999,0.053 1.472,0.105c1.682,0.105 3.417,0.21 5.1,0.316c1.314,0.105 2.681,0.315 3.417,1.156c0.579,0.684 0.789,1.735 0.631,3.155c-0.315,3.102 -1.735,3.733 -3.733,3.733c-0.263,0 -0.578,0 -0.999,-0.053c-0.841,-0.052 -1.735,-0.105 -2.576,-0.158l-0.21,2.629c0.42,0.053 0.894,0.053 1.314,0.105l0.158,0l-0.158,1.893ZM121.241,22.608c0.42,0 0.841,0.052 1.314,0.052c0.736,0.053 1.472,0.106 2.208,0.106c0.421,0.052 0.842,0.052 1.315,0.105l0.105,-1.367c-0.421,-0.053 -0.894,-0.053 -1.314,-0.105l-0.158,0l0.263,-3.155l0.157,0c0.894,0.053 1.788,0.105 2.734,0.158c0.368,0 0.684,0.052 0.947,0.052c1.945,0 3.207,-0.578 3.47,-3.47c0.158,-1.367 -0.053,-2.366 -0.579,-2.997c-0.683,-0.788 -1.945,-0.999 -3.207,-1.104c-1.682,-0.105 -3.365,-0.21 -5.047,-0.315c-0.473,0 -0.894,-0.053 -1.367,-0.053l-0.105,1.367c0.473,0 0.894,0.053 1.367,0.053l0.158,0l-0.631,9.253l-0.158,0c-0.421,0 -0.894,-0.052 -1.314,-0.052l-0.158,1.472ZM128.339,16.93c-0.158,0 -0.263,0 -0.421,0c-0.894,-0.053 -1.84,-0.106 -2.734,-0.158l-0.158,0l0.316,-4.417l0.157,0c0.947,0.053 1.841,0.106 2.787,0.158c0.578,0.053 1.209,0.158 1.577,0.578c0.316,0.369 0.421,0.947 0.368,1.788c-0.157,1.683 -0.841,2.051 -1.892,2.051ZM125.394,16.456c0.842,0.053 1.735,0.106 2.577,0.158c1.156,0.053 1.84,-0.052 1.997,-1.788c0.053,-0.788 0,-1.314 -0.262,-1.577c-0.263,-0.315 -0.736,-0.42 -1.367,-0.473c-0.894,-0.053 -1.735,-0.105 -2.629,-0.158l-0.316,3.838Z" style="fill:#fff;fill-rule:nonzero;"/></g><path d="M137.014,24.448c-3.996,-0.368 -3.733,-3.365 -3.628,-4.364c0.052,-0.631 0.158,-1.262 0.21,-1.945c0.105,-1.104 0.421,-4.049 5.1,-3.575c1.42,0.157 2.629,0.42 3.996,0.946c0.105,0.053 0.21,0.053 0.315,0.105c-0.315,2.261 -0.578,4.522 -0.893,6.782c0.42,0.053 0.841,0.106 1.261,0.158c-0.105,0.789 -0.21,1.577 -0.315,2.366c-1.209,-0.105 -2.419,-0.263 -3.628,-0.368c0,-0.105 -0.052,-0.21 -0.052,-0.315c-1.21,0.315 -2.209,0.21 -2.366,0.21ZM138.381,17.035c-1.367,-0.105 -1.578,0.21 -1.735,1.419c-0.053,0.684 -0.158,1.315 -0.211,1.998c-0.105,1.157 0.053,1.472 1.367,1.63c0.316,0.053 0.894,0 1.315,-0.053c0.21,-1.577 0.368,-3.154 0.578,-4.731c-0.473,-0.158 -0.999,-0.263 -1.314,-0.263Z" style="fill:url(#_Linear17);fill-rule:nonzero;"/><g><path d="M139.748,24.132c-0.053,-0.157 -0.053,-0.315 -0.106,-0.42c-1.104,0.42 -2.26,0.368 -2.576,0.368c-3.154,-0.263 -3.417,-2.261 -3.259,-3.943c0.052,-0.631 0.157,-1.262 0.21,-1.946c0.158,-1.261 0.526,-3.627 4.627,-3.259c1.419,0.105 2.576,0.42 3.89,0.893c-0.315,2.314 -0.578,4.575 -0.894,6.888c0.421,0.053 0.842,0.105 1.262,0.105c-0.052,0.526 -0.158,1.052 -0.21,1.577c-0.999,-0.052 -1.998,-0.157 -2.944,-0.263ZM136.015,20.4c-0.105,1.367 0.157,1.892 1.735,2.05c0.42,0.053 1.262,0 1.735,-0.105c0.21,-1.788 0.42,-3.575 0.683,-5.363c-0.526,-0.158 -1.262,-0.263 -1.735,-0.315c-1.63,-0.158 -2.05,0.368 -2.208,1.735c-0.053,0.631 -0.158,1.314 -0.21,1.998Z" style="fill:#fee69f;fill-rule:nonzero;"/><path d="M142.797,24.606l-0.158,0c-0.999,-0.105 -1.945,-0.211 -2.944,-0.316l-0.105,0l-0.053,-0.368c-0.841,0.263 -1.63,0.316 -2.05,0.316c-0.21,0 -0.368,0 -0.421,0c-1.262,-0.106 -2.208,-0.526 -2.734,-1.21c-0.736,-0.893 -0.683,-2.103 -0.631,-2.891l0.211,-1.946c0.105,-0.999 0.368,-3.417 3.943,-3.417c0.263,0 0.578,0 0.841,0.052c1.42,0.158 2.576,0.421 3.891,0.894l0.105,0.053l-0.894,6.835c0.368,0.052 0.736,0.052 1.104,0.105l0.158,0l-0.263,1.893ZM139.853,24.027c0.894,0.105 1.787,0.158 2.734,0.263l0.157,-1.314c-0.368,-0.053 -0.736,-0.053 -1.104,-0.105l-0.157,0l0.893,-6.94c-1.261,-0.474 -2.365,-0.736 -3.732,-0.842c-0.316,-0.052 -0.579,-0.052 -0.842,-0.052c-3.312,0 -3.522,2.155 -3.627,3.154l-0.211,1.946c-0.105,0.788 -0.105,1.892 0.579,2.681c0.525,0.631 1.367,0.999 2.576,1.104c0.105,0 0.21,0 0.42,0c0.421,0 1.262,-0.052 2.103,-0.368l0.158,-0.052l0.053,0.525ZM138.118,22.555c-0.158,0 -0.263,0 -0.368,0c-1.525,-0.158 -1.998,-0.631 -1.84,-2.208l0.21,-1.998c0.158,-1.314 0.526,-2.05 2.313,-1.893c0.526,0.053 1.262,0.158 1.735,0.316l0.105,0.052l-0.683,5.626l-0.105,0c-0.368,0.053 -0.894,0.105 -1.367,0.105ZM137.96,16.719c-1.051,0 -1.42,0.368 -1.577,1.683l-0.211,1.998c-0.105,1.261 0.106,1.735 1.63,1.892c0.105,0 0.211,0 0.368,0c0.421,0 0.894,-0.052 1.262,-0.105l0.631,-5.152c-0.473,-0.105 -1.157,-0.211 -1.577,-0.263c-0.263,-0.053 -0.421,-0.053 -0.526,-0.053Z" style="fill:#fff;fill-rule:nonzero;"/></g><path d="M143.743,24.974c0.106,-0.789 0.211,-1.578 0.316,-2.366c0.42,0.052 0.841,0.105 1.262,0.158c0.368,-2.787 0.788,-5.521 1.156,-8.308c-0.473,-0.052 -0.946,-0.105 -1.419,-0.157c0.105,-0.789 0.21,-1.578 0.315,-2.366c1.472,0.158 2.997,0.315 4.469,0.526c-0.525,3.575 -1.051,7.097 -1.63,10.673c0.421,0.052 0.842,0.105 1.262,0.157c-0.105,0.789 -0.263,1.578 -0.368,2.366c-1.735,-0.263 -3.522,-0.473 -5.363,-0.683Z" style="fill:url(#_Linear18);fill-rule:nonzero;"/><g><path d="M145.794,12.355c0.473,0.053 0.946,0.106 1.419,0.158c0.737,0.105 1.473,0.158 2.261,0.263c-0.526,3.575 -1.051,7.098 -1.577,10.673c0.421,0.053 0.841,0.105 1.262,0.158c-0.105,0.525 -0.158,1.051 -0.263,1.577c-0.421,-0.053 -0.841,-0.105 -1.209,-0.158c-0.736,-0.105 -1.42,-0.157 -2.156,-0.263c-0.421,-0.052 -0.841,-0.105 -1.209,-0.157c0.052,-0.526 0.157,-1.052 0.21,-1.578c0.421,0.053 0.841,0.106 1.262,0.158c0.421,-3.049 0.841,-6.046 1.314,-9.096c-0.473,-0.052 -0.946,-0.105 -1.419,-0.157c-0.053,-0.526 0.052,-1.052 0.105,-1.578Z" style="fill:#fee69f;fill-rule:nonzero;"/><path d="M148.948,25.289l-0.157,0c-0.421,-0.052 -0.841,-0.105 -1.21,-0.158c-0.736,-0.105 -1.419,-0.157 -2.155,-0.262c-0.421,-0.053 -0.841,-0.106 -1.209,-0.158l-0.158,0l0.263,-1.84l1.262,0.157l1.261,-8.832c-0.42,-0.053 -0.841,-0.106 -1.261,-0.158l-0.158,0l0.263,-1.84l0.157,0c0.474,0.052 0.947,0.105 1.42,0.157c0.736,0.106 1.472,0.158 2.261,0.263l0.158,0l-1.578,10.673c0.368,0.053 0.736,0.105 1.104,0.158l0.158,0l-0.421,1.84ZM144.374,24.501c0.368,0.052 0.736,0.105 1.104,0.105c0.737,0.105 1.42,0.157 2.156,0.263c0.368,0.052 0.736,0.105 1.104,0.157l0.21,-1.314c-0.368,-0.053 -0.736,-0.105 -1.104,-0.158l-0.157,0l1.577,-10.673c-0.684,-0.105 -1.42,-0.158 -2.103,-0.263c-0.421,-0.052 -0.841,-0.105 -1.262,-0.157l-0.158,1.314c0.421,0.053 0.842,0.105 1.262,0.158l0.158,0l-1.315,9.358l-1.261,-0.157l-0.211,1.367Z" style="fill:#fff;fill-rule:nonzero;"/></g><path d="M155.205,26.551c-3.628,-0.473 -4.732,-1.998 -4.153,-5.573c0.63,-4.154 2.681,-4.732 5.52,-4.364c2.997,0.421 4.048,1.893 3.523,4.679c-0.053,0.368 -0.158,0.789 -0.368,1.42c-0.053,0.105 -0.053,0.21 -0.106,0.368c-1.892,-0.263 -3.785,-0.526 -5.73,-0.789c-0.106,1.472 0.631,1.63 1.945,1.84c0.421,0.053 1.84,0.158 2.471,0.106c0.158,0 0.368,0 0.526,-0.053c-0.158,0.841 -0.316,1.63 -0.473,2.471c-0.106,0 -0.211,0 -0.316,0c-0.736,0 -1.84,0.053 -2.839,-0.105ZM157.203,20.452c0.158,-0.841 -0.21,-1.262 -1.104,-1.419c-0.841,-0.106 -1.42,0.052 -1.788,0.999c0.999,0.157 1.946,0.262 2.892,0.42Z" style="fill:url(#_Linear19);fill-rule:nonzero;"/><g><path d="M153.523,21.819c-0.368,2.208 0.788,2.471 2.26,2.682c0.421,0.052 1.841,0.157 2.577,0.105c-0.106,0.525 -0.211,1.104 -0.316,1.63c-0.683,0.052 -1.787,0.052 -2.786,-0.053c-3.47,-0.473 -4.364,-1.84 -3.838,-5.153c0.63,-3.838 2.365,-4.416 5.047,-4.048c2.366,0.316 3.733,1.367 3.207,4.259c-0.053,0.42 -0.21,0.894 -0.368,1.367c-1.945,-0.263 -3.838,-0.526 -5.783,-0.789ZM157.518,20.925c0.053,-0.157 0.053,-0.263 0.106,-0.368c0.21,-1.156 -0.368,-1.735 -1.473,-1.892c-1.156,-0.158 -1.997,0.21 -2.366,1.735c1.262,0.157 2.524,0.315 3.733,0.525Z" style="fill:#fee69f;fill-rule:nonzero;"/><path d="M156.993,26.393c-0.631,0 -1.21,-0.052 -1.735,-0.105c-1.841,-0.263 -2.892,-0.736 -3.523,-1.525c-0.578,-0.788 -0.736,-1.945 -0.473,-3.733c0.473,-2.944 1.63,-4.258 3.89,-4.258c0.369,0 0.789,0.052 1.262,0.105c1.472,0.21 2.366,0.631 2.892,1.367c0.526,0.736 0.631,1.682 0.421,3.049c-0.053,0.368 -0.158,0.789 -0.368,1.42l-0.053,0.105l-0.105,0c-1.84,-0.263 -3.733,-0.526 -5.626,-0.789c-0.105,0.737 -0.052,1.262 0.21,1.63c0.369,0.473 1.105,0.631 1.893,0.736c0.421,0.053 1.84,0.158 2.524,0.106l0.158,0l-0.368,1.945l-0.106,0c-0.21,-0.053 -0.525,-0.053 -0.893,-0.053ZM155.205,17.035c-2.156,0 -3.207,1.156 -3.628,3.995c-0.263,1.683 -0.157,2.787 0.421,3.523c0.578,0.736 1.577,1.209 3.312,1.42c0.736,0.105 1.683,0.105 2.629,0.105l0.263,-1.367c-0.736,0.052 -2.051,-0.053 -2.419,-0.105c-0.893,-0.105 -1.682,-0.263 -2.103,-0.842c-0.315,-0.42 -0.42,-1.104 -0.263,-1.945l0,-0.105l0.158,0c1.893,0.263 3.786,0.526 5.678,0.789c0.158,-0.526 0.263,-0.947 0.316,-1.262c0.21,-1.262 0.105,-2.156 -0.368,-2.839c-0.473,-0.684 -1.367,-1.052 -2.734,-1.262c-0.473,-0.053 -0.894,-0.105 -1.262,-0.105ZM157.624,21.03l-0.106,0c-1.261,-0.157 -2.471,-0.368 -3.733,-0.525l-0.157,0l0.052,-0.158c0.316,-1.262 0.947,-1.893 2.051,-1.893c0.158,0 0.315,0 0.473,0.053c0.631,0.105 1.104,0.315 1.367,0.683c0.263,0.316 0.315,0.789 0.21,1.367c0,0.158 -0.052,0.263 -0.105,0.368l-0.052,0.105ZM153.996,20.294c1.156,0.158 2.313,0.316 3.47,0.474c0,-0.053 0.052,-0.158 0.052,-0.211c0.106,-0.525 0.053,-0.893 -0.157,-1.156c-0.211,-0.316 -0.631,-0.474 -1.157,-0.579c-0.158,0 -0.315,-0.052 -0.473,-0.052c-0.947,0 -1.472,0.473 -1.735,1.524Z" style="fill:#fff;fill-rule:nonzero;"/></g><path d="M164.406,27.918c-2.471,-0.421 -3.05,-2.103 -2.787,-3.575c0.263,-1.42 0.526,-2.839 0.842,-4.259c-0.474,-0.052 -0.894,-0.158 -1.367,-0.21c0.157,-0.789 0.315,-1.577 0.473,-2.366c0.473,0.052 0.999,0.158 1.472,0.21c0.263,-0.736 0.526,-1.472 0.841,-2.208c0.841,0.105 1.683,0.263 2.524,0.421c-0.158,0.736 -0.316,1.524 -0.473,2.26c0.841,0.158 1.682,0.263 2.523,0.421c-0.157,0.789 -0.315,1.577 -0.473,2.366c-0.841,-0.158 -1.682,-0.263 -2.524,-0.421c-0.262,1.367 -0.578,2.734 -0.841,4.101c-0.105,0.421 -0.105,0.789 0.789,0.894c0.21,0.053 0.631,0.105 1.104,0.105c0.158,0 0.315,0 0.473,0c-0.158,0.789 -0.315,1.577 -0.526,2.366c-0.105,0 -0.21,0 -0.368,0c-0.525,0.053 -1.209,0 -1.682,-0.105Z" style="fill:url(#_Linear20);fill-rule:nonzero;"/><g><path d="M166.141,27.655c-0.578,0 -1.209,-0.052 -1.683,-0.158c-2.103,-0.368 -2.733,-1.735 -2.471,-3.154c0.316,-1.577 0.579,-3.102 0.894,-4.679c-0.473,-0.053 -0.894,-0.158 -1.367,-0.211c0.105,-0.526 0.211,-1.051 0.316,-1.577c0.473,0.052 0.946,0.158 1.419,0.21c0.263,-0.736 0.526,-1.472 0.841,-2.208c0.579,0.105 1.157,0.21 1.788,0.263c-0.158,0.736 -0.315,1.525 -0.473,2.261c0.841,0.157 1.682,0.263 2.523,0.42c-0.105,0.526 -0.21,1.052 -0.315,1.578c-0.841,-0.158 -1.682,-0.263 -2.524,-0.421c-0.315,1.525 -0.578,2.997 -0.893,4.522c-0.158,0.683 0.052,1.209 1.104,1.367c0.315,0.052 0.736,0.105 1.156,0.105c-0.105,0.631 -0.21,1.156 -0.315,1.682Z" style="fill:#fee69f;fill-rule:nonzero;"/><path d="M166.246,27.813l-0.105,0c-0.578,0 -1.209,-0.053 -1.683,-0.158c-0.998,-0.158 -1.735,-0.578 -2.155,-1.209c-0.421,-0.578 -0.578,-1.315 -0.421,-2.103l0.894,-4.522c-0.421,-0.052 -0.789,-0.105 -1.209,-0.21l-0.158,0l0.368,-1.84l0.105,0c0.421,0.052 0.894,0.157 1.315,0.21c0.263,-0.683 0.525,-1.419 0.788,-2.103l0.053,-0.105l0.105,0c0.578,0.105 1.157,0.21 1.788,0.263l0.157,0l-0.473,2.261c0.789,0.105 1.577,0.262 2.419,0.368l0.157,0l-0.368,1.84l-0.105,0c-0.788,-0.158 -1.577,-0.263 -2.418,-0.368l-0.894,4.364c-0.053,0.315 -0.053,0.578 0.105,0.788c0.158,0.21 0.473,0.368 0.894,0.421c0.21,0.052 0.683,0.105 1.157,0.105l0.157,0l-0.473,1.998ZM161.725,19.401c0.42,0.052 0.788,0.105 1.209,0.21l0.157,0l-0.946,4.784c-0.105,0.736 0,1.42 0.368,1.893c0.421,0.578 1.052,0.946 1.998,1.052c0.421,0.052 0.999,0.105 1.525,0.105l0.263,-1.315c-0.421,-0.052 -0.842,-0.105 -1.052,-0.105c-0.526,-0.105 -0.894,-0.263 -1.104,-0.526c-0.158,-0.262 -0.21,-0.578 -0.105,-0.946l0.946,-4.627l0.105,0c0.789,0.106 1.578,0.263 2.419,0.368l0.263,-1.314c-0.789,-0.158 -1.578,-0.263 -2.419,-0.368l-0.157,0l0.473,-2.261c-0.526,-0.105 -0.999,-0.158 -1.525,-0.263c-0.263,0.684 -0.526,1.42 -0.789,2.103l-0.052,0.106l-0.105,0c-0.421,-0.053 -0.842,-0.158 -1.315,-0.211l-0.157,1.315Z" style="fill:#fff;fill-rule:nonzero;"/></g><path d="M171.661,29.18c-2.418,-0.421 -2.996,-2.156 -2.734,-3.628c0.316,-1.42 0.631,-2.839 0.947,-4.259c-0.473,-0.052 -0.894,-0.157 -1.367,-0.21c0.158,-0.789 0.315,-1.577 0.526,-2.366c0.473,0.105 0.999,0.158 1.472,0.263c0.315,-0.736 0.578,-1.472 0.894,-2.208c0.841,0.158 1.682,0.315 2.523,0.473c-0.158,0.736 -0.368,1.525 -0.526,2.261c0.842,0.158 1.683,0.315 2.524,0.473c-0.21,0.789 -0.368,1.577 -0.578,2.366c-0.841,-0.158 -1.683,-0.316 -2.524,-0.473c-0.315,1.367 -0.631,2.734 -0.946,4.101c-0.105,0.42 -0.105,0.788 0.788,0.946c0.211,0.053 0.631,0.105 1.104,0.158c0.158,0 0.316,0 0.474,0.052c-0.211,0.789 -0.368,1.578 -0.579,2.366c-0.105,0 -0.21,0 -0.368,0c-0.525,-0.157 -1.156,-0.21 -1.63,-0.315Z" style="fill:url(#_Linear21);fill-rule:nonzero;"/><g><path d="M173.396,28.97c-0.578,0 -1.209,-0.053 -1.682,-0.158c-2.103,-0.368 -2.681,-1.788 -2.419,-3.207c0.316,-1.525 0.684,-3.102 0.999,-4.627c-0.473,-0.053 -0.893,-0.158 -1.367,-0.21c0.106,-0.526 0.211,-1.052 0.316,-1.578c0.473,0.105 0.946,0.158 1.419,0.263c0.316,-0.736 0.579,-1.472 0.894,-2.208c0.579,0.105 1.157,0.21 1.735,0.315c-0.157,0.737 -0.315,1.525 -0.525,2.261c0.841,0.158 1.682,0.316 2.523,0.473c-0.105,0.526 -0.263,1.052 -0.368,1.578c-0.841,-0.158 -1.682,-0.316 -2.524,-0.473c-0.315,1.472 -0.683,2.996 -0.998,4.469c-0.158,0.683 0,1.209 1.104,1.366c0.315,0.053 0.736,0.106 1.156,0.158c0,0.473 -0.157,0.999 -0.263,1.578Z" style="fill:#fee69f;fill-rule:nonzero;"/><path d="M173.502,29.075l-0.106,0c-0.578,0 -1.209,-0.053 -1.682,-0.158c-0.999,-0.158 -1.735,-0.578 -2.156,-1.209c-0.42,-0.579 -0.525,-1.315 -0.368,-2.103l0.999,-4.522c-0.42,-0.053 -0.788,-0.158 -1.209,-0.21l-0.158,0l0.421,-1.84l0.105,0c0.421,0.052 0.894,0.157 1.314,0.21c0.263,-0.684 0.579,-1.42 0.842,-2.103l0.052,-0.105l0.105,0c0.579,0.105 1.157,0.21 1.735,0.315l0.158,0l-0.526,2.261c0.789,0.158 1.578,0.315 2.419,0.421l0.158,0l-0.421,1.84l-0.105,0c-0.789,-0.158 -1.577,-0.316 -2.419,-0.421l-0.999,4.364c-0.052,0.315 -0.052,0.578 0.053,0.789c0.158,0.21 0.421,0.368 0.894,0.473c0.21,0.052 0.683,0.105 1.156,0.157l0.158,0l-0.42,1.841ZM169.138,20.61c0.42,0.052 0.788,0.158 1.209,0.21l0.158,0l-1.052,4.785c-0.158,0.736 -0.052,1.419 0.316,1.892c0.368,0.579 1.051,0.947 1.998,1.104c0.42,0.053 0.999,0.158 1.524,0.158l0.316,-1.314c-0.421,-0.053 -0.841,-0.105 -1.052,-0.158c-0.526,-0.105 -0.894,-0.263 -1.104,-0.578c-0.158,-0.263 -0.21,-0.579 -0.105,-0.999l1.051,-4.627l0.106,0c0.788,0.158 1.577,0.263 2.418,0.421l0.316,-1.315c-0.789,-0.157 -1.578,-0.315 -2.419,-0.42l-0.158,0l0.526,-2.261c-0.526,-0.105 -0.999,-0.158 -1.525,-0.263c-0.262,0.683 -0.578,1.42 -0.841,2.103l-0.052,0.105l-0.106,0c-0.42,-0.052 -0.841,-0.158 -1.314,-0.21l-0.21,1.367Z" style="fill:#fff;fill-rule:nonzero;"/></g><path d="M179.548,30.705c-3.575,-0.737 -4.627,-2.261 -3.786,-5.836c0.947,-4.101 3.05,-4.575 5.836,-3.996c2.945,0.578 3.944,2.103 3.207,4.889c-0.105,0.368 -0.262,0.789 -0.473,1.42c-0.052,0.105 -0.105,0.21 -0.105,0.368c-1.893,-0.421 -3.785,-0.789 -5.678,-1.157c-0.263,1.472 0.526,1.683 1.84,1.946c0.421,0.105 1.84,0.262 2.471,0.262c0.158,0 0.368,0 0.526,0c-0.21,0.789 -0.421,1.63 -0.631,2.419c-0.105,0 -0.21,0 -0.315,0c-0.737,-0.053 -1.841,-0.105 -2.892,-0.315ZM182.072,24.763c0.21,-0.841 -0.106,-1.314 -0.999,-1.472c-0.789,-0.157 -1.42,-0.052 -1.841,0.894c0.894,0.158 1.893,0.368 2.84,0.578Z" style="fill:url(#_Linear22);fill-rule:nonzero;"/><g><path d="M178.233,25.868c-0.525,2.155 0.579,2.523 2.051,2.786c0.421,0.105 1.84,0.263 2.576,0.263c-0.158,0.526 -0.263,1.104 -0.42,1.63c-0.684,0 -1.788,-0.053 -2.787,-0.263c-3.47,-0.684 -4.259,-2.103 -3.47,-5.363c0.894,-3.785 2.681,-4.259 5.363,-3.68c2.366,0.473 3.628,1.577 2.891,4.416c-0.105,0.421 -0.262,0.841 -0.473,1.367c-1.892,-0.368 -3.785,-0.788 -5.731,-1.156ZM182.334,25.184c0.053,-0.158 0.106,-0.263 0.106,-0.368c0.315,-1.157 -0.263,-1.735 -1.315,-1.945c-1.157,-0.211 -1.998,0.052 -2.524,1.577c1.262,0.263 2.524,0.526 3.733,0.736Z" style="fill:#fee69f;fill-rule:nonzero;"/><path d="M182.545,30.705l-0.105,0c-0.579,0 -1.735,-0.053 -2.787,-0.263c-1.788,-0.368 -2.839,-0.894 -3.417,-1.735c-0.526,-0.842 -0.579,-1.998 -0.158,-3.786c0.683,-2.786 1.84,-3.996 3.89,-3.996c0.474,0 0.999,0.053 1.63,0.211c1.472,0.315 2.366,0.788 2.839,1.524c0.474,0.736 0.526,1.735 0.158,3.05c-0.105,0.473 -0.315,0.946 -0.473,1.367l-0.053,0.105l-0.105,0c-1.84,-0.368 -3.733,-0.789 -5.573,-1.157c-0.158,0.736 -0.105,1.262 0.105,1.63c0.316,0.526 1.052,0.684 1.84,0.841c0.369,0.053 1.788,0.263 2.472,0.263l0.21,0l-0.473,1.946ZM179.968,21.188c-1.892,0 -2.996,1.157 -3.627,3.786c-0.421,1.682 -0.368,2.786 0.157,3.575c0.526,0.789 1.473,1.262 3.208,1.63c0.999,0.21 2.05,0.263 2.628,0.263l0.368,-1.367c-0.788,0 -2.05,-0.211 -2.418,-0.263c-0.894,-0.158 -1.63,-0.368 -2.051,-0.999c-0.315,-0.473 -0.315,-1.104 -0.105,-1.945l0.053,-0.106l0.105,0c1.84,0.368 3.733,0.736 5.626,1.157c0.157,-0.421 0.315,-0.841 0.42,-1.262c0.316,-1.209 0.263,-2.155 -0.157,-2.839c-0.421,-0.683 -1.262,-1.157 -2.629,-1.419c-0.631,-0.158 -1.157,-0.211 -1.578,-0.211ZM182.44,25.342l-0.106,0c-1.261,-0.263 -2.471,-0.526 -3.733,-0.736l-0.157,-0.053l0.052,-0.158c0.421,-1.209 1.052,-1.735 1.998,-1.735c0.211,0 0.421,0 0.684,0.053c0.631,0.105 1.051,0.368 1.314,0.736c0.21,0.368 0.263,0.841 0.105,1.367c-0.052,0.105 -0.052,0.263 -0.105,0.368l-0.052,0.158ZM178.812,24.343c1.156,0.21 2.313,0.473 3.417,0.683c0.053,-0.105 0.053,-0.157 0.053,-0.263c0.105,-0.473 0.105,-0.893 -0.105,-1.156c-0.211,-0.316 -0.579,-0.526 -1.104,-0.631c-0.211,-0.053 -0.421,-0.053 -0.631,-0.053c-0.736,0 -1.262,0.473 -1.63,1.42Z" style="fill:#fff;fill-rule:nonzero;"/></g><g><path d="M104.522,31.598l-0.947,-1.63c-0.052,-0.105 -0.105,-0.21 -0.105,-0.315c0,-0.21 0.158,-0.421 0.368,-0.578l0.053,0c0.263,-0.158 0.368,-0.316 0.368,-0.579c0,-0.42 -0.526,-0.788 -1.157,-0.788c-0.631,0 -1.157,0.368 -1.157,0.788l0.211,2.945c0.052,1.104 -0.579,1.314 -1.42,1.524c-0.21,0.053 -0.421,0.053 -0.631,0.053c-0.21,0 -0.42,0 -0.631,-0.053c-0.841,-0.21 -1.524,-0.42 -1.419,-1.524l0.21,-2.945c0,-0.42 -0.526,-0.788 -1.157,-0.788c-0.631,0 -1.156,0.368 -1.156,0.788c0,0.211 0.105,0.421 0.368,0.579l0.052,0c0.211,0.157 0.368,0.368 0.368,0.578c0,0.105 -0.052,0.21 -0.105,0.315l-0.946,1.63c-0.211,0.368 -0.316,0.631 -0.316,0.999c0,1.052 0.947,1.893 2.103,1.893l5.416,0c1.156,0 2.103,-0.841 2.103,-1.893c-0.158,-0.368 -0.211,-0.631 -0.473,-0.999Z" style="fill:url(#_Linear23);fill-rule:nonzero;stroke-width:0.25px;stroke:#bcbec0;"/><path d="M101.735,44.953l0,-10.41l-1.63,0l-0.052,0l-1.63,0l0,10.462c-0.684,0.105 -0.894,0.263 -0.894,0.421c0,0.263 0.999,0.631 2.576,0.631c1.577,0 2.576,-0.368 2.576,-0.631c-0.052,-0.21 -0.262,-0.368 -0.946,-0.473Z" style="fill:url(#_Linear24);fill-rule:nonzero;stroke-width:0.25px;stroke:#bcbec0;"/><path d="M104.679,45.058c-0.473,-0.316 -1.63,-0.473 -2.944,-0.579l0,0.474c0.684,0.105 0.894,0.263 0.894,0.42c0,0.263 -0.999,0.631 -2.576,0.631c-1.578,0 -2.577,-0.368 -2.577,-0.631c0,-0.157 0.211,-0.315 0.894,-0.42l0,-0.474c-1.209,0.106 -2.313,0.263 -2.944,0.526c0,0 -1.157,0.263 -1.157,1.84c0,0.631 2.576,1.63 5.784,1.63c3.207,0 5.783,-0.999 5.783,-1.63c0,-1.314 -1.157,-1.787 -1.157,-1.787Z" style="fill:url(#_Linear25);fill-rule:nonzero;stroke-width:0.25px;stroke:#bcbec0;"/><g><path d="M100.053,46.004c0.841,0 1.524,-0.105 1.945,-0.263c-0.578,-0.052 -1.262,-0.052 -1.945,-0.052c-0.684,0 -1.367,0.052 -1.946,0.052c0.473,0.158 1.104,0.263 1.946,0.263Z" style="fill:url(#_Linear26);fill-rule:nonzero;stroke-width:0.25px;stroke:#bcbec0;"/><path d="M105.836,46.845c0,0 0,0.053 0,0c0,0.631 -2.629,1.63 -5.783,1.63c-3.208,0 -5.784,-0.999 -5.784,-1.63l0,-0.052c-0.368,0.158 -1.262,0.683 -1.262,2.155c0,0.737 3.102,1.893 6.993,1.893c3.891,0 7.045,-1.156 7.045,-1.893c0.053,-1.261 -0.841,-1.892 -1.209,-2.103Z" style="fill:url(#_Linear27);fill-rule:nonzero;stroke-width:0.25px;stroke:#bcbec0;"/></g></g></g><defs><linearGradient id="_Linear1" x1="0" y1="0" x2="1" y2="0" gradientUnits="userSpaceOnUse" gradientTransform="matrix(6.22723,0,0,6.22723,26.2146,75.0799)"><stop offset="0%" style="stop-color:#bf7224;stop-opacity:1"/><stop offset="21%" style="stop-color:#c87727;stop-opacity:1"/><stop offset="48%" style="stop-color:#ce7b28;stop-opacity:1"/><stop offset="91%" style="stop-color:#cf7c29;stop-opacity:1"/><stop offset="100%" style="stop-color:#cf7c29;stop-opacity:1"/></linearGradient><linearGradient id="_Linear2" x1="0" y1="0" x2="1" y2="0" gradientUnits="userSpaceOnUse" gradientTransform="matrix(36.6029,0,0,36.6029,26.2146,80.2275)"><stop offset="0%" style="stop-color:#bf7224;stop-opacity:1"/><stop offset="21%" style="stop-color:#c87727;stop-opacity:1"/><stop offset="48%" style="stop-color:#ce7b28;stop-opacity:1"/><stop offset="91%" style="stop-color:#cf7c29;stop-opacity:1"/><stop offset="100%" style="stop-color:#cf7c29;stop-opacity:1"/></linearGradient><linearGradient id="_Linear3" x1="0" y1="0" x2="1" y2="0" gradientUnits="userSpaceOnUse" gradientTransform="matrix(36.6131,0,0,36.6131,137.334,80.2845)"><stop offset="0%" style="stop-color:#cf7c29;stop-opacity:1"/><stop offset="8%" style="stop-color:#cf7c29;stop-opacity:1"/><stop offset="51%" style="stop-color:#ce7b28;stop-opacity:1"/><stop offset="78%" style="stop-color:#c87727;stop-opacity:1"/><stop offset="100%" style="stop-color:#bf7224;stop-opacity:1"/></linearGradient><linearGradient id="_Linear4" x1="0" y1="0" x2="1" y2="0" gradientUnits="userSpaceOnUse" gradientTransform="matrix(1.45408e-15,-23.7469,23.7469,1.45408e-15,99.9874,66.7027)"><stop offset="0%" style="stop-color:#cf7c29;stop-opacity:1"/><stop offset="8%" style="stop-color:#cf7c29;stop-opacity:1"/><stop offset="51%" style="stop-color:#ce7b28;stop-opacity:1"/><stop offset="78%" style="stop-color:#c87727;stop-opacity:1"/><stop offset="100%" style="stop-color:#bf7224;stop-opacity:1"/></linearGradient><linearGradient id="_Linear5" x1="0" y1="0" x2="1" y2="0" gradientUnits="userSpaceOnUse" gradientTransform="matrix(43.7269,0,0,43.7269,56.2605,81.1129)"><stop offset="0%" style="stop-color:#bf7224;stop-opacity:1"/><stop offset="78%" style="stop-color:#bf7224;stop-opacity:1"/><stop offset="95%" style="stop-color:#bf7224;stop-opacity:1"/><stop offset="97%" style="stop-color:#bf7224;stop-opacity:1"/><stop offset="100%" style="stop-color:#bf7224;stop-opacity:1"/></linearGradient><linearGradient id="_Linear6" x1="0" y1="0" x2="1" y2="0" gradientUnits="userSpaceOnUse" gradientTransform="matrix(43.7975,0,0,43.7975,99.9874,81.1129)"><stop offset="0%" style="stop-color:#bf7224;stop-opacity:1"/><stop offset="78%" style="stop-color:#bf7224;stop-opacity:1"/><stop offset="95%" style="stop-color:#bf7224;stop-opacity:1"/><stop offset="97%" style="stop-color:#bf7224;stop-opacity:1"/><stop offset="100%" style="stop-color:#bf7224;stop-opacity:1"/></linearGradient><linearGradient id="_Linear7" x1="0" y1="0" x2="1" y2="0" gradientUnits="userSpaceOnUse" gradientTransform="matrix(12.4536,0,0,12.4536,12.3008,23.6886)"><stop offset="0%" style="stop-color:#cf7c29;stop-opacity:1"/><stop offset="8%" style="stop-color:#cf7c29;stop-opacity:1"/><stop offset="51%" style="stop-color:#ce7b28;stop-opacity:1"/><stop offset="78%" style="stop-color:#c87727;stop-opacity:1"/><stop offset="100%" style="stop-color:#bf7224;stop-opacity:1"/></linearGradient><linearGradient id="_Linear8" x1="0" y1="0" x2="1" y2="0" gradientUnits="userSpaceOnUse" gradientTransform="matrix(14.4097,0,0,14.4097,24.473,22.3405)"><stop offset="0%" style="stop-color:#cf7c29;stop-opacity:1"/><stop offset="8%" style="stop-color:#cf7c29;stop-opacity:1"/><stop offset="51%" style="stop-color:#ce7b28;stop-opacity:1"/><stop offset="78%" style="stop-color:#c87727;stop-opacity:1"/><stop offset="100%" style="stop-color:#bf7224;stop-opacity:1"/></linearGradient><linearGradient id="_Linear9" x1="0" y1="0" x2="1" y2="0" gradientUnits="userSpaceOnUse" gradientTransform="matrix(9.1205,0,0,9.1205,38.6884,21.6582)"><stop offset="0%" style="stop-color:#cf7c29;stop-opacity:1"/><stop offset="8%" style="stop-color:#cf7c29;stop-opacity:1"/><stop offset="51%" style="stop-color:#ce7b28;stop-opacity:1"/><stop offset="78%" style="stop-color:#c87727;stop-opacity:1"/><stop offset="100%" style="stop-color:#bf7224;stop-opacity:1"/></linearGradient><linearGradient id="_Linear10" x1="0" y1="0" x2="1" y2="0" gradientUnits="userSpaceOnUse" gradientTransform="matrix(10.8181,0,0,10.8181,53.078,18.0247)"><stop offset="0%" style="stop-color:#cf7c29;stop-opacity:1"/><stop offset="8%" style="stop-color:#cf7c29;stop-opacity:1"/><stop offset="51%" style="stop-color:#ce7b28;stop-opacity:1"/><stop offset="78%" style="stop-color:#c87727;stop-opacity:1"/><stop offset="100%" style="stop-color:#bf7224;stop-opacity:1"/></linearGradient><linearGradient id="_Linear11" x1="0" y1="0" x2="1" y2="0" gradientUnits="userSpaceOnUse" gradientTransform="matrix(12.9737,0,0,12.9737,63.4613,17.3906)"><stop offset="0%" style="stop-color:#cf7c29;stop-opacity:1"/><stop offset="8%" style="stop-color:#cf7c29;stop-opacity:1"/><stop offset="51%" style="stop-color:#ce7b28;stop-opacity:1"/><stop offset="78%" style="stop-color:#c87727;stop-opacity:1"/><stop offset="100%" style="stop-color:#bf7224;stop-opacity:1"/></linearGradient><linearGradient id="_Linear12" x1="0" y1="0" x2="1" y2="0" gradientUnits="userSpaceOnUse" gradientTransform="matrix(8.9225,0,0,8.9225,76.9704,18.1485)"><stop offset="0%" style="stop-color:#cf7c29;stop-opacity:1"/><stop offset="8%" style="stop-color:#cf7c29;stop-opacity:1"/><stop offset="51%" style="stop-color:#ce7b28;stop-opacity:1"/><stop offset="78%" style="stop-color:#c87727;stop-opacity:1"/><stop offset="100%" style="stop-color:#bf7224;stop-opacity:1"/></linearGradient><linearGradient id="_Linear13" x1="0" y1="0" x2="1" y2="0" gradientUnits="userSpaceOnUse" gradientTransform="matrix(8.92718,0,0,8.92718,87.1219,17.8218)"><stop offset="0%" style="stop-color:#cf7c29;stop-opacity:1"/><stop offset="8%" style="stop-color:#cf7c29;stop-opacity:1"/><stop offset="51%" style="stop-color:#ce7b28;stop-opacity:1"/><stop offset="78%" style="stop-color:#c87727;stop-opacity:1"/><stop offset="100%" style="stop-color:#bf7224;stop-opacity:1"/></linearGradient><linearGradient id="_Linear14" x1="0" y1="0" x2="1" y2="0" gradientUnits="userSpaceOnUse" gradientTransform="matrix(7.73628,0,0,7.73628,97.262,17.7448)"><stop offset="0%" style="stop-color:#cf7c29;stop-opacity:1"/><stop offset="8%" style="stop-color:#cf7c29;stop-opacity:1"/><stop offset="51%" style="stop-color:#ce7b28;stop-opacity:1"/><stop offset="78%" style="stop-color:#c87727;stop-opacity:1"/><stop offset="100%" style="stop-color:#bf7224;stop-opacity:1"/></linearGradient><linearGradient id="_Linear15" x1="0" y1="0" x2="1" y2="0" gradientUnits="userSpaceOnUse" gradientTransform="matrix(8.98018,0,0,8.98018,106.272,17.8942)"><stop offset="0%" style="stop-color:#cf7c29;stop-opacity:1"/><stop offset="8%" style="stop-color:#cf7c29;stop-opacity:1"/><stop offset="51%" style="stop-color:#ce7b28;stop-opacity:1"/><stop offset="78%" style="stop-color:#c87727;stop-opacity:1"/><stop offset="100%" style="stop-color:#bf7224;stop-opacity:1"/></linearGradient><linearGradient id="_Linear16" x1="0" y1="0" x2="1" y2="0" gradientUnits="userSpaceOnUse" gradientTransform="matrix(12.1841,0,0,12.1841,120.661,16.7288)"><stop offset="0%" style="stop-color:#cf7c29;stop-opacity:1"/><stop offset="8%" style="stop-color:#cf7c29;stop-opacity:1"/><stop offset="51%" style="stop-color:#ce7b28;stop-opacity:1"/><stop offset="78%" style="stop-color:#c87727;stop-opacity:1"/><stop offset="100%" style="stop-color:#bf7224;stop-opacity:1"/></linearGradient><linearGradient id="_Linear17" x1="0" y1="0" x2="1" y2="0" gradientUnits="userSpaceOnUse" gradientTransform="matrix(9.97287,0,0,9.97287,133.369,19.7015)"><stop offset="0%" style="stop-color:#cf7c29;stop-opacity:1"/><stop offset="8%" style="stop-color:#cf7c29;stop-opacity:1"/><stop offset="51%" style="stop-color:#ce7b28;stop-opacity:1"/><stop offset="78%" style="stop-color:#c87727;stop-opacity:1"/><stop offset="100%" style="stop-color:#bf7224;stop-opacity:1"/></linearGradient><linearGradient id="_Linear18" x1="0" y1="0" x2="1" y2="0" gradientUnits="userSpaceOnUse" gradientTransform="matrix(6.15347,0,0,6.15347,143.767,18.7586)"><stop offset="0%" style="stop-color:#cf7c29;stop-opacity:1"/><stop offset="8%" style="stop-color:#cf7c29;stop-opacity:1"/><stop offset="51%" style="stop-color:#ce7b28;stop-opacity:1"/><stop offset="78%" style="stop-color:#c87727;stop-opacity:1"/><stop offset="100%" style="stop-color:#bf7224;stop-opacity:1"/></linearGradient><linearGradient id="_Linear19" x1="0" y1="0" x2="1" y2="0" gradientUnits="userSpaceOnUse" gradientTransform="matrix(9.29721,0,0,9.29721,150.885,21.5862)"><stop offset="0%" style="stop-color:#cf7c29;stop-opacity:1"/><stop offset="8%" style="stop-color:#cf7c29;stop-opacity:1"/><stop offset="51%" style="stop-color:#ce7b28;stop-opacity:1"/><stop offset="78%" style="stop-color:#c87727;stop-opacity:1"/><stop offset="100%" style="stop-color:#bf7224;stop-opacity:1"/></linearGradient><linearGradient id="_Linear20" x1="0" y1="0" x2="1" y2="0" gradientUnits="userSpaceOnUse" gradientTransform="matrix(7.38391,0,0,7.38391,161.064,21.7845)"><stop offset="0%" style="stop-color:#cf7c29;stop-opacity:1"/><stop offset="8%" style="stop-color:#cf7c29;stop-opacity:1"/><stop offset="51%" style="stop-color:#ce7b28;stop-opacity:1"/><stop offset="78%" style="stop-color:#c87727;stop-opacity:1"/><stop offset="100%" style="stop-color:#bf7224;stop-opacity:1"/></linearGradient><linearGradient id="_Linear21" x1="0" y1="0" x2="1" y2="0" gradientUnits="userSpaceOnUse" gradientTransform="matrix(7.42245,0,0,7.42245,168.492,23.0435)"><stop offset="0%" style="stop-color:#cf7c29;stop-opacity:1"/><stop offset="8%" style="stop-color:#cf7c29;stop-opacity:1"/><stop offset="51%" style="stop-color:#ce7b28;stop-opacity:1"/><stop offset="78%" style="stop-color:#c87727;stop-opacity:1"/><stop offset="100%" style="stop-color:#bf7224;stop-opacity:1"/></linearGradient><linearGradient id="_Linear22" x1="0" y1="0" x2="1" y2="0" gradientUnits="userSpaceOnUse" gradientTransform="matrix(9.54674,0,0,9.54674,175.534,25.8105)"><stop offset="0%" style="stop-color:#cf7c29;stop-opacity:1"/><stop offset="8%" style="stop-color:#cf7c29;stop-opacity:1"/><stop offset="51%" style="stop-color:#ce7b28;stop-opacity:1"/><stop offset="78%" style="stop-color:#c87727;stop-opacity:1"/><stop offset="100%" style="stop-color:#bf7224;stop-opacity:1"/></linearGradient><linearGradient id="_Linear23" x1="0" y1="0" x2="1" y2="0" gradientUnits="userSpaceOnUse" gradientTransform="matrix(4.16695e-16,-6.80515,6.80515,4.16695e-16,100.059,34.5223)"><stop offset="0%" style="stop-color:#fff;stop-opacity:1"/><stop offset="4%" style="stop-color:#fff;stop-opacity:1"/><stop offset="19%" style="stop-color:#636363;stop-opacity:1"/><stop offset="65%" style="stop-color:#a3a5a8;stop-opacity:1"/><stop offset="100%" style="stop-color:#fff;stop-opacity:1"/></linearGradient><linearGradient id="_Linear24" x1="0" y1="0" x2="1" y2="0" gradientUnits="userSpaceOnUse" gradientTransform="matrix(3.79348,0,0,3.79348,98.1892,40.275)"><stop offset="0%" style="stop-color:#fff;stop-opacity:1"/><stop offset="4%" style="stop-color:#fff;stop-opacity:1"/><stop offset="44%" style="stop-color:#666;stop-opacity:1"/><stop offset="65%" style="stop-color:#a7a9ac;stop-opacity:1"/><stop offset="100%" style="stop-color:#fff;stop-opacity:1"/></linearGradient><linearGradient id="_Linear25" x1="0" y1="0" x2="1" y2="0" gradientUnits="userSpaceOnUse" gradientTransform="matrix(11.56,0,0,11.56,94.2794,46.4927)"><stop offset="0%" style="stop-color:#fff;stop-opacity:1"/><stop offset="4%" style="stop-color:#fff;stop-opacity:1"/><stop offset="44%" style="stop-color:#666;stop-opacity:1"/><stop offset="65%" style="stop-color:#a7a9ac;stop-opacity:1"/><stop offset="100%" style="stop-color:#fff;stop-opacity:1"/></linearGradient><linearGradient id="_Linear26" x1="0" y1="0" x2="1" y2="0" gradientUnits="userSpaceOnUse" gradientTransform="matrix(3.90195,0,0,3.90195,98.1106,45.8674)"><stop offset="0%" style="stop-color:#fff;stop-opacity:1"/><stop offset="4%" style="stop-color:#fff;stop-opacity:1"/><stop offset="44%" style="stop-color:#666;stop-opacity:1"/><stop offset="65%" style="stop-color:#a7a9ac;stop-opacity:1"/><stop offset="100%" style="stop-color:#fff;stop-opacity:1"/></linearGradient><linearGradient id="_Linear27" x1="0" y1="0" x2="1" y2="0" gradientUnits="userSpaceOnUse" gradientTransform="matrix(14.0505,0,0,14.0505,93.0342,48.881)"><stop offset="0%" style="stop-color:#fff;stop-opacity:1"/><stop offset="4%" style="stop-color:#fff;stop-opacity:1"/><stop offset="44%" style="stop-color:#666;stop-opacity:1"/><stop offset="65%" style="stop-color:#a7a9ac;stop-opacity:1"/><stop offset="100%" style="stop-color:#fff;stop-opacity:1"/></linearGradient></defs></svg>