<?xml version="1.0" standalone="no"?><!DOCTYPE svg PUBLIC "-//W3C//DTD SVG 1.1//EN" "http://www.w3.org/Graphics/SVG/1.1/DTD/svg11.dtd"><svg width="100%" height="100%" viewBox="0 0 400 207" version="1.1" xmlns="http://www.w3.org/2000/svg" xmlns:xlink="http://www.w3.org/1999/xlink" xml:space="preserve" style="fill-rule:evenodd;clip-rule:evenodd;stroke-miterlimit:1.41421;"><g><g id="Layer1"><ellipse cx="200" cy="144.014" rx="177" ry="40.282" style="fill:#000;fill-opacity:0.368627;"/></g><g><g><g><path d="M28.947,94.881c0,-27.676 11.826,-45.111 13.777,-47.061c-1.951,1.95 -13.777,19.507 -13.777,47.061c0,30.114 11.704,48.28 14.386,51.328c-2.682,-2.926 -14.386,-21.214 -14.386,-51.328Z" style="fill:#fff;fill-rule:nonzero;stroke-width:1.59px;stroke:#d3d3d3;"/><path d="M42.602,47.942c-1.341,1.585 -2.073,3.291 -2.073,4.876c0,10.242 26.823,19.264 68.031,24.75l-0.122,0.122c-4.633,4.999 -8.778,15.362 -9.631,33.406c-0.244,5.364 -0.244,11.338 0.122,18.044c1.585,28.163 10.485,39.868 14.386,40.843l0.488,0.122c-0.122,0 -0.366,0 -0.488,-0.122c-35.844,-5.243 -66.08,-20.239 -69.616,-23.287c-6.096,-5.242 -14.752,-20.482 -14.752,-51.694c0,-31.211 13.655,-47.06 13.655,-47.06Z" style="fill:#fff;fill-rule:nonzero;stroke-width:1.59px;stroke:#d3d3d3;"/></g><path d="M357.52,48.185c1.341,1.585 1.829,3.17 1.829,4.877c0,10.241 -26.457,19.142 -67.544,24.628l0.122,0.122c4.633,4.999 9.51,17.556 9.51,51.45c0,28.285 -10.973,39.989 -14.874,40.965c35.722,-5.365 59.497,-15.728 70.104,-23.409c6.096,-4.511 15.361,-20.482 14.752,-51.694c-0.488,-31.455 -13.899,-46.939 -13.899,-46.939Z" style="fill:#fff;fill-rule:nonzero;stroke-width:1.59px;stroke:#d3d3d3;"/><path d="M200,52.087l91.318,25.603c41.209,-5.486 68.153,-14.509 68.153,-24.75c0,-16.703 -71.445,-30.236 -159.471,-30.236c-88.026,0 -159.471,13.411 -159.471,30.114c0,10.242 26.823,19.264 68.031,24.75c3.902,-3.292 91.44,-25.481 91.44,-25.481Z" style="fill:#fff;fill-rule:nonzero;stroke-width:1.59px;stroke-linejoin:round;stroke:#d3d3d3;"/><path d="M108.438,77.69c-4.754,5.121 -8.9,15.484 -9.753,33.528c-0.244,5.364 -0.244,11.338 0.122,18.044c1.585,28.163 10.485,39.868 14.386,40.843c0.122,0 0.366,0 0.488,0.122c3.536,0 86.197,-30.724 86.197,-30.724l0,-36.576l0,-19.751l0,-31.089c0.122,0 -87.416,22.189 -91.44,25.603Z" style="fill:#fff;fill-rule:nonzero;stroke-width:1.59px;stroke-linejoin:round;stroke:#d3d3d3;"/><path d="M301.071,111.096c-1.828,-27.798 -9.144,-33.284 -9.144,-33.284l-0.609,-0.244l-91.318,-25.603l0,87.416l86.563,30.724c0,0 14.996,-5.121 14.996,-45.11c0,-5.121 -0.244,-9.754 -0.488,-13.899Z" style="fill:#fff;fill-rule:nonzero;stroke-width:1.59px;stroke-linejoin:round;stroke:#d3d3d3;"/><path d="M200,133.041l0,-74.736l88.636,24.993c1.463,2.195 5.242,9.632 6.461,28.286c0.244,4.145 0.366,8.778 0.366,13.533c0,26.212 -6.706,35.478 -9.632,38.282l-85.831,-30.358Z" style="fill:#e5e5e5;fill-rule:nonzero;stroke-width:1.27px;stroke:#d3d3d3;"/><path d="M112.34,82.445c-2.317,2.926 -6.584,10.607 -7.559,28.895c-0.244,5.364 -0.244,11.094 0.122,17.312c1.219,21.946 7.071,32.065 9.631,34.869c9.51,-2.804 57.181,-20.116 85.344,-30.602l0,-74.614c-36.576,9.388 -81.076,21.458 -87.538,24.14Z" style="fill:#e5e5e5;fill-rule:nonzero;stroke-width:1.27px;stroke:#d3d3d3;"/></g><path d="M167.326,119.508c2.072,0 2.072,-3.17 0,-3.17c-2.073,0 -2.073,3.17 0,3.17Z" style="fill:#b2b2b2;fill-rule:nonzero;"/><path d="M139.406,132.798c2.073,0 2.073,-3.17 0,-3.17c-2.073,0 -2.073,3.17 0,3.17Z" style="fill:#b2b2b2;fill-rule:nonzero;"/><path d="M166.716,104.268c2.073,0 2.073,-3.17 0,-3.17c-2.073,0 -2.073,3.17 0,3.17Z" style="fill:#b2b2b2;fill-rule:nonzero;"/><path d="M189.515,123.288c2.073,0 2.073,-3.17 0,-3.17c-2.073,0 -1.951,3.17 0,3.17Z" style="fill:#b2b2b2;fill-rule:nonzero;"/><path d="M187.686,74.398c2.073,0 2.073,-3.17 0,-3.17c-2.073,0 -2.073,3.17 0,3.17Z" style="fill:#b2b2b2;fill-rule:nonzero;"/><path d="M123.556,98.538c2.073,0 2.073,-3.17 0,-3.17c-2.072,0 -2.072,3.17 0,3.17Z" style="fill:#b2b2b2;fill-rule:nonzero;"/><path d="M154.646,84.517c2.073,0 2.073,-3.169 0,-3.169c-2.073,0 -2.073,3.169 0,3.169Z" style="fill:#b2b2b2;fill-rule:nonzero;"/><path d="M270.226,121.337c2.072,0 2.072,-3.17 0,-3.17c-2.073,0 -2.073,3.17 0,3.17Z" style="fill:#b2b2b2;fill-rule:nonzero;"/><path d="M284.856,145.477c2.073,0 2.073,-3.17 0,-3.17c-2.073,0 -2.073,3.17 0,3.17Z" style="fill:#b2b2b2;fill-rule:nonzero;"/><path d="M235.966,108.657c2.073,0 2.073,-3.169 0,-3.169c-2.072,0 -2.072,3.169 0,3.169Z" style="fill:#b2b2b2;fill-rule:nonzero;"/><path d="M248.646,143.039c2.073,0 2.073,-3.17 0,-3.17c-2.073,0 -2.073,3.17 0,3.17Z" style="fill:#b2b2b2;fill-rule:nonzero;"/><path d="M266.446,104.878c2.073,0 2.073,-3.17 0,-3.17c-2.072,0 -2.072,3.17 0,3.17Z" style="fill:#b2b2b2;fill-rule:nonzero;"/><path d="M208.656,128.408c2.073,0 2.073,-3.169 0,-3.169c-2.072,0 -2.072,3.169 0,3.169Z" style="fill:#b2b2b2;fill-rule:nonzero;"/><path d="M211.095,70.619c2.072,0 2.072,-3.17 0,-3.17c-2.073,0 -1.951,3.17 0,3.17Z" style="fill:#b2b2b2;fill-rule:nonzero;"/><path d="M273.396,154.377c2.072,0 2.072,-3.17 0,-3.17c-2.073,0 -2.073,3.17 0,3.17Z" style="fill:#b2b2b2;fill-rule:nonzero;"/><path d="M289.855,120.728c2.072,0 2.072,-3.17 0,-3.17c-2.073,0 -2.073,3.17 0,3.17Z" style="fill:#b2b2b2;fill-rule:nonzero;"/><path d="M243.525,82.079c2.073,0 2.073,-3.17 0,-3.17c-2.072,0 -2.072,3.17 0,3.17Z" style="fill:#b2b2b2;fill-rule:nonzero;"/><path d="M214.508,89.028c2.073,0 2.073,-3.169 0,-3.169c-2.072,0 -1.95,3.169 0,3.169Z" style="fill:#b2b2b2;fill-rule:nonzero;"/><path d="M230.236,130.237c2.073,0 2.073,-3.17 0,-3.17c-2.073,0 -2.073,3.17 0,3.17Z" style="fill:#b2b2b2;fill-rule:nonzero;"/><path d="M234.016,83.908c2.072,0 2.072,-3.17 0,-3.17c-2.073,0 -2.073,3.17 0,3.17Z" style="fill:#b2b2b2;fill-rule:nonzero;"/><path d="M209.51,101.464c2.072,0 2.072,-3.17 0,-3.17c-2.073,0 -2.073,3.17 0,3.17Z" style="fill:#b2b2b2;fill-rule:nonzero;"/><path d="M123.556,155.718c2.073,0 2.073,-3.169 0,-3.169c-2.072,0 -2.072,3.169 0,3.169Z" style="fill:#b2b2b2;fill-rule:nonzero;"/><path d="M111.486,124.629c2.073,0 2.073,-3.17 0,-3.17c-2.072,-0.122 -2.072,3.17 0,3.17Z" style="fill:#b2b2b2;fill-rule:nonzero;"/><path d="M156.597,111.218c2.072,0 2.072,-3.17 0,-3.17c-2.073,0 -2.073,3.17 0,3.17Z" style="fill:#b2b2b2;fill-rule:nonzero;"/><path d="M175.006,137.674c2.073,0 2.073,-3.17 0,-3.17c-2.072,0 -2.072,3.17 0,3.17Z" style="fill:#b2b2b2;fill-rule:nonzero;"/><path d="M193.416,89.638c2.073,0 2.073,-3.17 0,-3.17c-2.072,0 -2.072,3.17 0,3.17Z" style="fill:#b2b2b2;fill-rule:nonzero;"/><path d="M147.697,146.209c2.072,0 2.072,-3.17 0,-3.17c-2.073,0 -2.073,3.17 0,3.17Z" style="fill:#b2b2b2;fill-rule:nonzero;"/><path d="M279.126,88.419c2.072,0 2.072,-3.17 0,-3.17c-2.073,0 -2.073,3.17 0,3.17Z" style="fill:#b2b2b2;fill-rule:nonzero;"/><path d="M164.156,74.398c2.072,0 2.072,-3.17 0,-3.17c-2.073,0 -2.073,3.17 0,3.17Z" style="fill:#b2b2b2;fill-rule:nonzero;"/><path d="M209.632,113.656c1.585,0 1.585,-2.56 0,-2.56c-1.585,0 -1.585,2.56 0,2.56Z" style="fill:#b2b2b2;fill-rule:nonzero;"/><path d="M275.712,133.773c0.853,0 0.853,-1.219 0,-1.219c-0.853,0 -0.853,1.219 0,1.219Z" style="fill:#b2b2b2;fill-rule:nonzero;"/><path d="M263.032,141.454c0.854,0 0.854,-1.219 0,-1.219c-0.853,0 -0.853,1.219 0,1.219Z" style="fill:#b2b2b2;fill-rule:nonzero;"/><path d="M238.405,92.32c0.853,0 0.853,-1.219 0,-1.219c-0.854,0 -0.732,1.219 0,1.219Z" style="fill:#b2b2b2;fill-rule:nonzero;"/><path d="M240.112,136.699c0.853,0 0.853,-1.219 0,-1.219c-0.854,0 -0.732,1.219 0,1.219Z" style="fill:#b2b2b2;fill-rule:nonzero;"/><path d="M164.399,118.533c0.854,0 0.854,-1.219 0,-1.219c-0.853,0 -0.853,1.219 0,1.219Z" style="fill:#b2b2b2;fill-rule:nonzero;"/><path d="M180.493,131.822c0.853,0 0.853,-1.219 0,-1.219c-0.854,0 -0.854,1.219 0,1.219Z" style="fill:#b2b2b2;fill-rule:nonzero;"/><path d="M247.671,129.384c0.853,0 0.853,-1.219 0,-1.219c-0.732,-0.122 -0.732,1.219 0,1.219Z" style="fill:#b2b2b2;fill-rule:nonzero;"/><path d="M272.054,103.293c0.854,0 0.854,-1.219 0,-1.219c-0.853,0 -0.853,1.219 0,1.219Z" style="fill:#b2b2b2;fill-rule:nonzero;"/><path d="M255.717,96.587c0.854,0 0.854,-1.219 0,-1.219c-0.853,-0.122 -0.853,1.219 0,1.219Z" style="fill:#b2b2b2;fill-rule:nonzero;"/><path d="M247.914,107.804c0.854,0 0.854,-1.219 0,-1.219c-0.853,-0.122 -0.853,1.219 0,1.219Z" style="fill:#b2b2b2;fill-rule:nonzero;"/><path d="M145.38,105.244c0.853,0 0.853,-1.219 0,-1.219c-0.853,0 -0.853,1.219 0,1.219Z" style="fill:#b2b2b2;fill-rule:nonzero;"/><path d="M157.206,134.992c0.854,0 0.854,-1.219 0,-1.219c-0.853,0 -0.853,1.219 0,1.219Z" style="fill:#b2b2b2;fill-rule:nonzero;"/><path d="M114.412,98.66c0.854,0 0.854,-1.219 0,-1.219c-0.731,-0.122 -0.731,1.219 0,1.219Z" style="fill:#b2b2b2;fill-rule:nonzero;"/><path d="M169.52,88.053c0.854,0 0.854,-1.219 0,-1.219c-0.853,0 -0.853,1.219 0,1.219Z" style="fill:#b2b2b2;fill-rule:nonzero;"/><path d="M215.971,80.494c0.854,0 0.854,-1.219 0,-1.219c-0.853,0 -0.731,1.219 0,1.219Z" style="fill:#b2b2b2;fill-rule:nonzero;"/><path d="M222.799,107.56c0.853,0 0.853,-1.219 0,-1.219c-0.853,-0.122 -0.853,1.219 0,1.219Z" style="fill:#b2b2b2;fill-rule:nonzero;"/><path d="M283.271,144.38c0.853,0 0.853,-1.219 0,-1.219c-0.731,-0.122 -0.731,1.219 0,1.219Z" style="fill:#b2b2b2;fill-rule:nonzero;"/><path d="M122.947,140.6c0.853,0 0.853,-1.219 0,-1.219c-0.854,-0.122 -0.854,1.219 0,1.219Z" style="fill:#b2b2b2;fill-rule:nonzero;"/><path d="M144.039,93.174c0.853,0 0.853,-1.219 0,-1.219c-0.854,0 -0.732,1.219 0,1.219Z" style="fill:#b2b2b2;fill-rule:nonzero;"/><path d="M118.924,89.76c0.853,0 0.853,-1.219 0,-1.219c-0.854,0 -0.854,1.219 0,1.219Z" style="fill:#b2b2b2;fill-rule:nonzero;"/><path d="M234.259,100.733c0.854,0 0.854,-1.219 0,-1.219c-0.853,0 -0.853,1.219 0,1.219Z" style="fill:#b2b2b2;fill-rule:nonzero;"/><path d="M262.179,117.314c0.853,0 0.853,-1.219 0,-1.219c-0.853,0 -0.853,1.219 0,1.219Z" style="fill:#b2b2b2;fill-rule:nonzero;"/><path d="M215.606,133.773c0.853,0 0.853,-1.219 0,-1.219c-0.854,0 -0.854,1.219 0,1.219Z" style="fill:#b2b2b2;fill-rule:nonzero;"/><path d="M215.606,124.873c0.853,0 0.853,-1.219 0,-1.219c-0.854,0 -0.854,1.219 0,1.219Z" style="fill:#b2b2b2;fill-rule:nonzero;"/><path d="M286.319,89.76c0.853,0 0.853,-1.219 0,-1.219c-0.853,0 -0.853,1.219 0,1.219Z" style="fill:#b2b2b2;fill-rule:nonzero;"/><path d="M251.938,76.227c0.853,0 0.853,-1.219 0,-1.219c-0.732,-0.122 -0.732,1.219 0,1.219Z" style="fill:#b2b2b2;fill-rule:nonzero;"/><path d="M179.152,96.587c0.853,0 0.853,-1.219 0,-1.219c-0.854,0 -0.732,1.219 0,1.219Z" style="fill:#b2b2b2;fill-rule:nonzero;"/><path d="M127.092,118.167c0.854,0 0.854,-1.219 0,-1.219c-0.853,0 -0.731,1.219 0,1.219Z" style="fill:#b2b2b2;fill-rule:nonzero;"/><path d="M200,52.087" style="fill:#b2b2b2;fill-rule:nonzero;stroke-width:1.27px;stroke:#fccc67;"/></g></g></svg>