<?xml version="1.0" standalone="no"?><!DOCTYPE svg PUBLIC "-//W3C//DTD SVG 1.1//EN" "http://www.w3.org/Graphics/SVG/1.1/DTD/svg11.dtd"><svg width="100%" height="100%" viewBox="0 0 139 100" version="1.1" xmlns="http://www.w3.org/2000/svg" xmlns:xlink="http://www.w3.org/1999/xlink" xml:space="preserve" style="fill-rule:evenodd;clip-rule:evenodd;stroke-linejoin:round;stroke-miterlimit:1.41421;"><g id="Layer1"><g id="Palette"><path d="M15,67.5l0,-18.784l7.699,0c0.776,0 1.49,0.168 2.143,0.503c0.652,0.335 1.217,0.771 1.693,1.309c0.476,0.538 0.851,1.151 1.124,1.839c0.274,0.688 0.41,1.385 0.41,2.09c0,0.741 -0.127,1.46 -0.383,2.156c-0.256,0.697 -0.613,1.314 -1.072,1.852c-0.458,0.538 -1.005,0.97 -1.64,1.297c-0.635,0.326 -1.34,0.489 -2.116,0.489l-6.932,0l0,7.249l-0.926,0l0,0ZM15.926,59.404l6.905,0c0.67,0 1.27,-0.141 1.799,-0.423c0.529,-0.282 0.979,-0.657 1.349,-1.124c0.371,-0.468 0.657,-0.997 0.86,-1.588c0.203,-0.591 0.304,-1.195 0.304,-1.812c0,-0.635 -0.119,-1.248 -0.357,-1.839c-0.238,-0.591 -0.56,-1.111 -0.965,-1.561c-0.406,-0.449 -0.878,-0.811 -1.416,-1.084c-0.538,-0.274 -1.115,-0.41 -1.733,-0.41l-6.746,0l0,9.841Z" style="fill:#fff;fill-rule:nonzero;"/><path d="M36.192,48.716l0.793,0l8.069,18.784l-0.979,0l-2.777,-6.482l-9.419,0l-2.778,6.482l-1.005,0l8.096,-18.784l0,0ZM41.007,60.225l-4.419,-10.345l-4.444,10.345l8.863,0Z" style="fill:#fff;fill-rule:nonzero;"/><path d="M48.07,67.5l0,-18.784l0.926,0l0,17.937l11.509,0l0,0.847l-12.435,0Z" style="fill:#fff;fill-rule:nonzero;"/><path d="M75.823,66.653l0,0.847l-12.408,0l0,-18.784l12.17,0l0,0.847l-11.244,0l0,7.91l9.842,0l0,0.847l-9.842,0l0,8.333l11.482,0Z" style="fill:#fff;fill-rule:nonzero;"/><path d="M92.623,49.563l-7.038,0l0,17.937l-0.926,0l0,-17.937l-7.037,0l0,-0.847l15.001,0l0,0.847Z" style="fill:#fff;fill-rule:nonzero;"/><path d="M108.576,49.563l-7.037,0l0,17.937l-0.926,0l0,-17.937l-7.038,0l0,-0.847l15.001,0l0,0.847Z" style="fill:#fff;fill-rule:nonzero;"/><path d="M124,66.653l0,0.847l-12.408,0l0,-18.784l12.17,0l0,0.847l-11.244,0l0,7.91l9.842,0l0,0.847l-9.842,0l0,8.333l11.482,0Z" style="fill:#fff;fill-rule:nonzero;"/></g><g id="The"><path d="M25.814,33.129l-5.073,0l0,12.925l-0.668,0l0,-12.925l-5.073,0l0,-0.61l10.814,0l0,0.61Z" style="fill:#fff;fill-rule:nonzero;"/><path d="M38.307,32.519l0,13.535l-0.648,0l0,-6.615l-9.003,0l0,6.615l-0.667,0l0,-13.535l0.667,0l0,6.31l9.003,0l0,-6.31l0.648,0Z" style="fill:#fff;fill-rule:nonzero;"/><path d="M50.914,45.444l0,0.61l-8.945,0l0,-13.535l8.774,0l0,0.61l-8.106,0l0,5.7l7.095,0l0,0.61l-7.095,0l0,6.005l8.277,0Z" style="fill:#fff;fill-rule:nonzero;"/></g><g id="Cheese"><path d="M53.161,39.176c0,-0.815 0.147,-1.621 0.442,-2.417c0.294,-0.796 0.724,-1.507 1.288,-2.134c0.564,-0.627 1.254,-1.135 2.068,-1.523c0.815,-0.389 1.743,-0.583 2.784,-0.583c1.228,0 2.291,0.269 3.187,0.808c0.896,0.54 1.564,1.242 2.003,2.107l-1.993,1.372c-0.176,-0.376 -0.389,-0.692 -0.64,-0.949c-0.251,-0.257 -0.52,-0.461 -0.808,-0.611c-0.289,-0.151 -0.59,-0.261 -0.903,-0.33c-0.314,-0.068 -0.621,-0.103 -0.922,-0.103c-0.652,0 -1.219,0.132 -1.701,0.395c-0.483,0.263 -0.884,0.605 -1.204,1.025c-0.32,0.42 -0.561,0.896 -0.724,1.429c-0.163,0.533 -0.244,1.063 -0.244,1.589c0,0.589 0.094,1.157 0.282,1.702c0.188,0.545 0.454,1.025 0.799,1.439c0.345,0.413 0.758,0.745 1.241,0.996c0.483,0.251 1.012,0.376 1.589,0.376c0.301,0 0.614,-0.037 0.94,-0.113c0.326,-0.075 0.637,-0.194 0.931,-0.357c0.295,-0.163 0.567,-0.373 0.818,-0.63c0.251,-0.257 0.451,-0.567 0.602,-0.931l2.125,1.223c-0.213,0.501 -0.517,0.943 -0.912,1.325c-0.395,0.383 -0.84,0.706 -1.335,0.969c-0.496,0.263 -1.025,0.464 -1.589,0.602c-0.565,0.138 -1.116,0.207 -1.655,0.207c-0.953,0 -1.824,-0.201 -2.614,-0.602c-0.79,-0.401 -1.47,-0.925 -2.04,-1.57c-0.571,-0.646 -1.016,-1.379 -1.336,-2.201c-0.319,-0.821 -0.479,-1.658 -0.479,-2.51l0,0Z" style="fill:#fff;fill-rule:nonzero;"/><path d="M78.097,32.594l0,13.352l-2.577,0l0,-5.698l-6.055,0l0,5.698l-2.595,0l0,-13.352l2.595,0l0,5.397l6.055,0l0,-5.397l2.577,0Z" style="fill:#fff;fill-rule:nonzero;"/><path d="M90.151,43.67l0,2.276l-9.271,0l0,-13.352l9.101,0l0,2.275l-6.506,0l0,3.216l5.623,0l0,2.106l-5.623,0l0,3.479l6.676,0Z" style="fill:#fff;fill-rule:nonzero;"/><path d="M101.453,43.67l0,2.276l-9.271,0l0,-13.352l9.101,0l0,2.275l-6.506,0l0,3.216l5.622,0l0,2.106l-5.622,0l0,3.479l6.676,0Z" style="fill:#fff;fill-rule:nonzero;"/><path d="M111.156,36.092c-0.088,-0.088 -0.248,-0.207 -0.479,-0.358c-0.232,-0.15 -0.514,-0.297 -0.847,-0.441c-0.332,-0.145 -0.692,-0.267 -1.081,-0.367c-0.389,-0.1 -0.784,-0.151 -1.185,-0.151c-0.714,0 -1.247,0.132 -1.598,0.395c-0.351,0.264 -0.527,0.633 -0.527,1.11c0,0.276 0.066,0.504 0.198,0.686c0.131,0.182 0.323,0.342 0.573,0.48c0.251,0.138 0.568,0.263 0.95,0.376c0.382,0.113 0.824,0.232 1.326,0.357c0.652,0.176 1.244,0.364 1.777,0.564c0.533,0.201 0.984,0.452 1.354,0.753c0.37,0.3 0.655,0.661 0.855,1.081c0.201,0.42 0.301,0.937 0.301,1.551c0,0.715 -0.134,1.326 -0.404,1.834c-0.27,0.508 -0.633,0.918 -1.091,1.232c-0.457,0.313 -0.984,0.542 -1.579,0.686c-0.596,0.144 -1.22,0.216 -1.871,0.216c-1.003,0 -1.994,-0.15 -2.972,-0.451c-0.978,-0.301 -1.855,-0.727 -2.632,-1.279l1.147,-2.238c0.113,0.113 0.316,0.26 0.611,0.442c0.294,0.182 0.642,0.364 1.044,0.546c0.401,0.181 0.846,0.335 1.335,0.46c0.489,0.126 0.99,0.188 1.504,0.188c1.429,0 2.144,-0.457 2.144,-1.372c0,-0.289 -0.082,-0.533 -0.245,-0.734c-0.163,-0.2 -0.394,-0.376 -0.695,-0.526c-0.301,-0.151 -0.665,-0.289 -1.091,-0.414c-0.426,-0.125 -0.903,-0.263 -1.429,-0.414c-0.64,-0.175 -1.194,-0.367 -1.664,-0.573c-0.471,-0.207 -0.862,-0.452 -1.176,-0.734c-0.313,-0.282 -0.548,-0.608 -0.705,-0.978c-0.157,-0.37 -0.235,-0.811 -0.235,-1.325c0,-0.677 0.125,-1.279 0.376,-1.806c0.251,-0.526 0.599,-0.965 1.044,-1.316c0.445,-0.351 0.962,-0.618 1.551,-0.799c0.589,-0.182 1.222,-0.273 1.899,-0.273c0.941,0 1.806,0.147 2.596,0.442c0.789,0.295 1.479,0.642 2.068,1.044l-1.147,2.106l0,0Z" style="fill:#fff;fill-rule:nonzero;"/><path d="M124,43.67l0,2.276l-9.271,0l0,-13.352l9.102,0l0,2.275l-6.507,0l0,3.216l5.623,0l0,2.106l-5.623,0l0,3.479l6.676,0Z" style="fill:#fff;fill-rule:nonzero;"/></g></g></svg>