<?xml version="1.0" standalone="no"?><!DOCTYPE svg PUBLIC "-//W3C//DTD SVG 1.1//EN" "http://www.w3.org/Graphics/SVG/1.1/DTD/svg11.dtd"><svg width="100%" height="100%" viewBox="0 0 139 70" version="1.1" xmlns="http://www.w3.org/2000/svg" xmlns:xlink="http://www.w3.org/1999/xlink" xml:space="preserve" style="fill-rule:evenodd;clip-rule:evenodd;stroke-linejoin:round;stroke-miterlimit:1.41421;"><g id="Layer1"><g><g><g><path d="M8.498,25.228l0,1.863l6.268,0l0,-1.863l-1.862,0l0,-12.173l3.134,0l0,1.817l2.225,0l0,-3.861l-13.263,0l0,3.861l2.226,0l0,-1.817l3.134,0l0,12.173l-1.862,0Z" style="fill:#9a1f22;fill-rule:nonzero;"/><path d="M30.164,19.959l0,7.132l4.043,0l0,-1.772l-1.636,0l0,-5.451c0,-4.133 -2.361,-4.496 -4.633,-4.496c-1.044,0 -2.18,0.136 -2.998,0.408l-0.181,0.091l0,-4.86l-4.224,0l0,1.772l1.771,0l0,12.582l-1.635,0l0,1.771l5.723,0l0,-1.771l-1.635,0l0,-7.722l0.136,-0.046c0.681,-0.181 1.635,-0.272 2.589,-0.272c1.726,-0.046 2.68,0.363 2.68,2.634Z" style="fill:#9a1f22;fill-rule:nonzero;"/><path d="M46.789,21.913c0.091,-0.727 0.091,-1.272 0.091,-1.727c0,-3.406 -1.363,-4.814 -4.77,-4.814c-3.361,0 -5.314,0.999 -5.314,5.995c0,4.497 1.408,5.905 5.814,5.905c1.226,0 2.498,-0.181 3.407,-0.363l0,-1.862c-0.954,0.181 -2.635,0.318 -3.135,0.318c-1.998,0 -3.633,-0.227 -3.633,-3.271l0,-0.181l7.54,0ZM39.339,20.141c0.137,-1.999 1,-2.862 2.817,-2.862c1.635,0 2.452,0.818 2.452,2.408c0,0.181 0,0.318 -0.045,0.545l0,0.182l-5.224,0l0,-0.273Z" style="fill:#9a1f22;fill-rule:nonzero;"/></g><g><path d="M67.274,14.827l0,-3.634c-1.226,-0.227 -2.589,-0.409 -4.406,-0.409c-6.858,0 -6.858,4.043 -6.858,6.223l0,4.088c0,6.223 4.542,6.223 6.722,6.223c1.817,0 3.225,-0.182 4.406,-0.409l0,-1.999c-1.09,0.182 -2.771,0.318 -4.406,0.318c-3.725,0 -4.224,-1.998 -4.224,-4.133l0,-3.997c0,-2.226 0.545,-4.27 4.315,-4.27c0.681,0 1.408,0.045 1.998,0.091l0.182,0l0,1.908l2.271,0Z" style="fill:#9a1f22;fill-rule:nonzero;"/><path d="M79.493,19.959l0,7.132l4.043,0l0,-1.772l-1.59,0l0,-5.451c0,-4.133 -2.362,-4.496 -4.633,-4.496c-1.045,0 -2.181,0.136 -2.998,0.408l-0.227,0.091l0,-4.86l-4.225,0l0,1.772l1.772,0l0,12.582l-1.635,0l0,1.771l5.723,0l0,-1.771l-1.635,0l0,-7.722l0.136,-0.046c0.681,-0.181 1.635,-0.272 2.589,-0.272c1.772,-0.046 2.68,0.363 2.68,2.634Z" style="fill:#9a1f22;fill-rule:nonzero;"/><path d="M96.163,21.913c0.091,-0.727 0.091,-1.272 0.091,-1.727c0,-3.406 -1.363,-4.814 -4.769,-4.814c-3.362,0 -5.315,0.999 -5.315,5.995c0,4.497 1.408,5.905 5.814,5.905c1.227,0 2.498,-0.181 3.407,-0.363l0,-1.862c-0.954,0.181 -2.635,0.318 -3.134,0.318c-1.999,0 -3.634,-0.227 -3.634,-3.271l0,-0.181l7.54,0ZM88.714,20.141c0.136,-1.999 0.999,-2.862 2.816,-2.862c1.635,0 2.453,0.818 2.453,2.408c0,0.181 0,0.318 -0.046,0.545l0,0.182l-5.223,0l0,-0.273Z" style="fill:#9a1f22;fill-rule:nonzero;"/><path d="M109.245,21.913c0.091,-0.727 0.091,-1.272 0.091,-1.727c0,-3.406 -1.363,-4.814 -4.77,-4.814c-3.361,0 -5.314,0.999 -5.314,5.995c0,4.497 1.408,5.905 5.814,5.905c1.226,0 2.498,-0.181 3.407,-0.363l0,-1.862c-0.954,0.181 -2.635,0.318 -3.135,0.318c-1.998,0 -3.633,-0.227 -3.633,-3.271l0,-0.181l7.54,0ZM101.75,20.141c0.136,-1.999 0.999,-2.862 2.816,-2.862c1.635,0 2.453,0.818 2.453,2.408c0,0.181 0,0.318 -0.045,0.545l0,0.182l-5.224,0l0,-0.273Z" style="fill:#9a1f22;fill-rule:nonzero;"/><path d="M120.918,24.093c0,-1.545 -0.499,-2.317 -2.135,-3.089l-2.861,-1.363c-0.636,-0.318 -0.909,-0.454 -0.909,-1.181c0,-0.817 0.636,-1.135 2.272,-1.135c0.09,0 0.408,0 0.817,0.045l0.182,0l0,1.227l2.135,0l0,-2.726c-1.136,-0.363 -2.408,-0.454 -2.998,-0.454c-4.043,0 -4.815,1.09 -4.815,2.953c0,1.589 0.545,2.362 2.407,3.225l2.181,1.044c0.59,0.273 1.271,0.636 1.271,1.408c0,1.091 -0.635,1.499 -2.452,1.499c-0.318,0 -0.909,0 -1.408,-0.181l-0.137,-0.046l0,-1.453l-2.135,0l0,2.816c1.318,0.409 2.59,0.636 3.68,0.636c3.633,0 4.905,-0.818 4.905,-3.225Z" style="fill:#9a1f22;fill-rule:nonzero;"/><path d="M133.909,21.913c0.091,-0.727 0.091,-1.272 0.091,-1.727c0,-3.406 -1.363,-4.814 -4.769,-4.814c-3.362,0 -5.315,0.999 -5.315,5.995c0,4.497 1.408,5.905 5.814,5.905c1.227,0 2.499,-0.181 3.407,-0.363l0,-1.862c-0.954,0.181 -2.635,0.318 -3.134,0.318c-1.999,0 -3.634,-0.227 -3.634,-3.271l0,-0.181l7.54,0ZM126.46,20.141c0.136,-1.999 0.999,-2.862 2.816,-2.862c1.635,0 2.453,0.818 2.453,2.408c0,0.181 0,0.318 -0.046,0.545l0,0.182l-5.223,0l0,-0.273Z" style="fill:#9a1f22;fill-rule:nonzero;"/></g><g><path d="M26.151,41.169c0,-6.786 -2.815,-8.013 -8.302,-8.013l-12.849,0l0,2.96l2.96,0l0,19.707l-2.96,0l0,2.96l9.962,0l0,-2.96l-2.96,0l0,-6.713l5.847,0c5.487,0.072 8.302,-1.155 8.302,-7.941ZM12.002,36.477l5.847,0c2.744,0 4.26,0.722 4.26,4.692c0,3.898 -1.516,4.692 -4.26,4.692l-5.847,0l0,-9.384Z" style="fill:#9a1f22;fill-rule:nonzero;"/><path d="M39.073,40.231c-8.302,0 -8.302,4.981 -8.302,7.435l0,4.115c0,3.465 0.794,7.435 7.291,7.435c0.144,0 2.671,0 5.053,-1.227l0.289,-0.145l0.361,1.011l5.631,0l0,-2.815l-2.671,0l0,-14.799c-2.599,-0.722 -4.909,-1.01 -7.652,-1.01ZM42.827,55.462l-0.217,0.072c-1.011,0.361 -2.671,0.578 -3.682,0.578c-3.537,0 -4.259,-1.444 -4.331,-4.259l0,-4.259c0,-2.888 0.722,-4.404 4.331,-4.404c0.939,0 2.455,0.072 3.61,0.289l0.216,0.072l0,11.911l0.073,0Z" style="fill:#9a1f22;fill-rule:nonzero;"/><path d="M52.933,33.228l0,2.743l2.815,0l0,19.997l-2.599,0l0,2.815l9.096,0l0,-2.815l-2.599,0l0,-22.74l-6.713,0Z" style="fill:#9a1f22;fill-rule:nonzero;"/><path d="M82.602,50.553c0.145,-1.155 0.145,-2.021 0.145,-2.743c0,-5.414 -2.166,-7.652 -7.58,-7.652c-5.342,0 -8.446,1.589 -8.446,9.529c0,7.147 2.238,9.385 9.24,9.385c1.949,0 3.97,-0.289 5.414,-0.578l0,-2.96c-1.516,0.289 -4.187,0.506 -4.981,0.506c-3.176,0 -5.775,-0.361 -5.775,-5.198l0,-0.289l11.983,0ZM70.763,47.738c0.217,-3.176 1.588,-4.548 4.476,-4.548c2.599,0 3.898,1.3 3.898,3.826c0,0.289 0,0.506 -0.072,0.866l0,0.289l-8.302,0l0,-0.433Z" style="fill:#9a1f22;fill-rule:nonzero;"/><path d="M95.307,59.144c0.939,0 2.094,-0.072 3.104,-0.289l0,-2.887c-0.938,0.072 -1.732,0.144 -2.165,0.144c-2.094,0 -3.104,-0.939 -3.104,-2.743l0,-9.962l5.197,0l0,-2.815l-5.197,0l0,-4.909l-3.032,0l-0.794,4.909l-2.888,0l0,2.815l2.743,0l0,10.323c0.217,3.393 2.455,5.414 6.136,5.414Z" style="fill:#9a1f22;fill-rule:nonzero;"/><path d="M110.539,59.144c0.938,0 2.093,-0.072 3.104,-0.289l0,-2.887c-0.938,0.072 -1.733,0.144 -2.166,0.144c-2.093,0 -3.104,-0.939 -3.104,-2.743l0,-9.962l5.198,0l0,-2.815l-5.198,0l0,-4.909l-3.032,0l-0.794,4.909l-2.887,0l0,2.815l2.743,0l0,10.323c0.216,3.393 2.454,5.414 6.136,5.414Z" style="fill:#9a1f22;fill-rule:nonzero;"/><path d="M133.856,50.553c0.144,-1.155 0.144,-2.021 0.144,-2.743c0,-5.414 -2.166,-7.652 -7.58,-7.652c-5.342,0 -8.446,1.589 -8.446,9.529c0,7.147 2.238,9.385 9.24,9.385c1.949,0 3.971,-0.289 5.414,-0.578l0,-2.96c-1.516,0.289 -4.186,0.506 -4.981,0.506c-3.176,0 -5.775,-0.361 -5.775,-5.198l0,-0.289l11.984,0ZM122.017,47.738c0.216,-3.176 1.588,-4.548 4.475,-4.548c2.599,0 3.899,1.3 3.899,3.826c0,0.289 0,0.506 -0.073,0.866l0,0.289l-8.301,0l0,-0.433Z" style="fill:#9a1f22;fill-rule:nonzero;"/></g></g></g></g></svg>